<?xml version="1.0" encoding="us-ascii" standalone="no"?>
<svg xmlns="http://www.w3.org/2000/svg" contentStyleType="text/css"
     height="911px" preserveAspectRatio="none" style="width:959px;height:911px;background:#FFFFFF;" version="1.1"
     viewBox="0 0 959 911" width="959px" zoomAndPan="magnify">
    <defs/>
    <g><!--class DimBlock-->
        <g id="elem_DimBlock">
            <rect codeLine="2" fill="#F1F1F1" height="178.3477" id="DimBlock" rx="2.5" ry="2.5"
                  style="stroke:#181818;stroke-width:0.5;" width="172" x="231" y="357"/>
            <ellipse cx="283.75" cy="373" fill="#ADD1B2" rx="11" ry="11" style="stroke:#181818;stroke-width:1.0;"/>
            <path d="M282.6094,373.7969 L282.6094,376.2969 L286.9375,376.2969 L286.9375,375.375 Q286.9375,374.7656 287.1719,374.5 Q287.4219,374.2344 287.7969,374.2344 Q288.1719,374.2344 288.4063,374.5 Q288.6406,374.7656 288.6406,375.375 L288.6406,378 L280.6406,378 Q280.0156,378 279.75,377.7656 Q279.5,377.5313 279.5,377.1406 Q279.5,376.7656 279.7656,376.5313 Q280.0313,376.2969 280.6406,376.2969 L280.9063,376.2969 L280.9063,369.6406 L280.6406,369.6406 Q280.0156,369.6406 279.75,369.4063 Q279.5,369.1719 279.5,368.7813 Q279.5,368.4063 279.75,368.1719 Q280.0156,367.9375 280.6406,367.9375 L288.2656,367.9375 L288.2656,370.5313 Q288.2656,371.1406 288.0313,371.4063 Q287.8125,371.6563 287.4219,371.6563 Q287.0469,371.6563 286.8125,371.4063 Q286.5781,371.1406 286.5781,370.5313 L286.5781,369.6406 L282.6094,369.6406 L282.6094,372.0938 L284.0938,372.0938 Q284.0938,371.4375 284.2188,371.25 Q284.4844,370.8438 284.9531,370.8438 Q285.3281,370.8438 285.5625,371.1094 Q285.7969,371.3594 285.7969,371.9688 L285.7969,373.9375 Q285.7969,374.4844 285.6719,374.6719 Q285.4063,375.0625 284.9531,375.0625 Q284.4844,375.0625 284.2188,374.6563 Q284.0938,374.4688 284.0938,373.7969 L282.6094,373.7969 Z "
                  fill="#000000"/>
            <text fill="#000000" font-family="sans-serif" font-size="14" lengthAdjust="spacing" textLength="58"
                  x="304.25" y="378.7969">DimBlock
            </text>
            <line style="stroke:#181818;stroke-width:0.5;" x1="232" x2="402" y1="389" y2="389"/>
            <text fill="#000000" font-family="sans-serif" font-size="14" font-weight="bold" lengthAdjust="spacing"
                  textLength="122" x="237" y="408.1074">SurrogateKey: int
            </text>
            <text fill="#000000" font-family="sans-serif" font-size="14" lengthAdjust="spacing" textLength="34" x="363"
                  y="408.1074">&#171;PK&#187;
            </text>
            <line style="stroke:#181818;stroke-width:1.0;" x1="232" x2="402" y1="415.6211" y2="415.6211"/>
            <text fill="#000000" font-family="sans-serif" font-size="14" lengthAdjust="spacing" textLength="154" x="237"
                  y="434.7285">TimestampKey: int &#171;FK&#187;
            </text>
            <text fill="#000000" font-family="sans-serif" font-size="14" lengthAdjust="spacing" textLength="151" x="237"
                  y="453.3496">BlockHash: varbinary(1)
            </text>
            <text fill="#000000" font-family="sans-serif" font-size="14" lengthAdjust="spacing" textLength="97" x="237"
                  y="471.9707">GasLimit: bigint
            </text>
            <text fill="#000000" font-family="sans-serif" font-size="14" lengthAdjust="spacing" textLength="100" x="237"
                  y="490.5918">GasUsed: bigint
            </text>
            <text fill="#000000" font-family="sans-serif" font-size="14" lengthAdjust="spacing" textLength="155" x="237"
                  y="509.2129">TransactionCount: bigint
            </text>
            <text fill="#000000" font-family="sans-serif" font-size="14" lengthAdjust="spacing" textLength="147" x="237"
                  y="527.834">BaseFeePerGas: bigint
            </text>
        </g><!--class DimTimestamp-->
        <g id="elem_DimTimestamp">
            <rect codeLine="12" fill="#F1F1F1" height="290.0742" id="DimTimestamp" rx="2.5" ry="2.5"
                  style="stroke:#181818;stroke-width:0.5;" width="172" x="223" y="614"/>
            <ellipse cx="259.15" cy="630" fill="#ADD1B2" rx="11" ry="11" style="stroke:#181818;stroke-width:1.0;"/>
            <path d="M258.0094,630.7969 L258.0094,633.2969 L262.3375,633.2969 L262.3375,632.375 Q262.3375,631.7656 262.5719,631.5 Q262.8219,631.2344 263.1969,631.2344 Q263.5719,631.2344 263.8063,631.5 Q264.0406,631.7656 264.0406,632.375 L264.0406,635 L256.0406,635 Q255.4156,635 255.15,634.7656 Q254.9,634.5313 254.9,634.1406 Q254.9,633.7656 255.1656,633.5313 Q255.4312,633.2969 256.0406,633.2969 L256.3063,633.2969 L256.3063,626.6406 L256.0406,626.6406 Q255.4156,626.6406 255.15,626.4063 Q254.9,626.1719 254.9,625.7813 Q254.9,625.4063 255.15,625.1719 Q255.4156,624.9375 256.0406,624.9375 L263.6656,624.9375 L263.6656,627.5313 Q263.6656,628.1406 263.4313,628.4063 Q263.2125,628.6563 262.8219,628.6563 Q262.4469,628.6563 262.2125,628.4063 Q261.9781,628.1406 261.9781,627.5313 L261.9781,626.6406 L258.0094,626.6406 L258.0094,629.0938 L259.4938,629.0938 Q259.4938,628.4375 259.6188,628.25 Q259.8844,627.8438 260.3531,627.8438 Q260.7281,627.8438 260.9625,628.1094 Q261.1969,628.3594 261.1969,628.9688 L261.1969,630.9375 Q261.1969,631.4844 261.0719,631.6719 Q260.8063,632.0625 260.3531,632.0625 Q259.8844,632.0625 259.6188,631.6563 Q259.4938,631.4688 259.4938,630.7969 L258.0094,630.7969 Z "
                  fill="#000000"/>
            <text fill="#000000" font-family="sans-serif" font-size="14" lengthAdjust="spacing" textLength="93"
                  x="277.85" y="635.7969">DimTimestamp
            </text>
            <line style="stroke:#181818;stroke-width:0.5;" x1="224" x2="394" y1="646" y2="646"/>
            <text fill="#000000" font-family="sans-serif" font-size="14" font-weight="bold" lengthAdjust="spacing"
                  textLength="122" x="229" y="665.1074">SurrogateKey: int
            </text>
            <text fill="#000000" font-family="sans-serif" font-size="14" lengthAdjust="spacing" textLength="34" x="355"
                  y="665.1074">&#171;PK&#187;
            </text>
            <line style="stroke:#181818;stroke-width:1.0;" x1="224" x2="394" y1="672.6211" y2="672.6211"/>
            <text fill="#000000" font-family="sans-serif" font-size="14" lengthAdjust="spacing" textLength="137" x="229"
                  y="691.7285">UnixTimestamp: bigint
            </text>
            <text fill="#000000" font-family="sans-serif" font-size="14" lengthAdjust="spacing" textLength="41" x="229"
                  y="710.3496">HH: int
            </text>
            <text fill="#000000" font-family="sans-serif" font-size="14" lengthAdjust="spacing" textLength="45" x="229"
                  y="728.9707">MM: int
            </text>
            <text fill="#000000" font-family="sans-serif" font-size="14" lengthAdjust="spacing" textLength="41" x="229"
                  y="747.5918">SS: int
            </text>
            <text fill="#000000" font-family="sans-serif" font-size="14" lengthAdjust="spacing" textLength="71" x="229"
                  y="766.2129">AM_PM: int
            </text>
            <text fill="#000000" font-family="sans-serif" font-size="14" lengthAdjust="spacing" textLength="48" x="229"
                  y="784.834">Day: int
            </text>
            <text fill="#000000" font-family="sans-serif" font-size="14" lengthAdjust="spacing" textLength="59" x="229"
                  y="803.4551">Week: int
            </text>
            <text fill="#000000" font-family="sans-serif" font-size="14" lengthAdjust="spacing" textLength="146" x="229"
                  y="822.0762">WeekName: varchar(9)
            </text>
            <text fill="#000000" font-family="sans-serif" font-size="14" lengthAdjust="spacing" textLength="62" x="229"
                  y="840.6973">Month: int
            </text>
            <text fill="#000000" font-family="sans-serif" font-size="14" lengthAdjust="spacing" textLength="149" x="229"
                  y="859.3184">MonthName: varchar(9)
            </text>
            <text fill="#000000" font-family="sans-serif" font-size="14" lengthAdjust="spacing" textLength="72" x="229"
                  y="877.9395">Quarter: int
            </text>
            <text fill="#000000" font-family="sans-serif" font-size="14" lengthAdjust="spacing" textLength="53" x="229"
                  y="896.5605">Year: int
            </text>
        </g><!--class DimToken-->
        <g id="elem_DimToken">
            <rect codeLine="28" fill="#F1F1F1" height="178.3477" id="DimToken" rx="2.5" ry="2.5"
                  style="stroke:#181818;stroke-width:0.5;" width="172" x="719" y="357"/>
            <ellipse cx="768.75" cy="373" fill="#ADD1B2" rx="11" ry="11" style="stroke:#181818;stroke-width:1.0;"/>
            <path d="M767.6094,373.7969 L767.6094,376.2969 L771.9375,376.2969 L771.9375,375.375 Q771.9375,374.7656 772.1719,374.5 Q772.4219,374.2344 772.7969,374.2344 Q773.1719,374.2344 773.4063,374.5 Q773.6406,374.7656 773.6406,375.375 L773.6406,378 L765.6406,378 Q765.0156,378 764.75,377.7656 Q764.5,377.5313 764.5,377.1406 Q764.5,376.7656 764.7656,376.5313 Q765.0313,376.2969 765.6406,376.2969 L765.9063,376.2969 L765.9063,369.6406 L765.6406,369.6406 Q765.0156,369.6406 764.75,369.4063 Q764.5,369.1719 764.5,368.7813 Q764.5,368.4063 764.75,368.1719 Q765.0156,367.9375 765.6406,367.9375 L773.2656,367.9375 L773.2656,370.5313 Q773.2656,371.1406 773.0313,371.4063 Q772.8125,371.6563 772.4219,371.6563 Q772.0469,371.6563 771.8125,371.4063 Q771.5781,371.1406 771.5781,370.5313 L771.5781,369.6406 L767.6094,369.6406 L767.6094,372.0938 L769.0938,372.0938 Q769.0938,371.4375 769.2188,371.25 Q769.4844,370.8438 769.9531,370.8438 Q770.3281,370.8438 770.5625,371.1094 Q770.7969,371.3594 770.7969,371.9688 L770.7969,373.9375 Q770.7969,374.4844 770.6719,374.6719 Q770.4063,375.0625 769.9531,375.0625 Q769.4844,375.0625 769.2188,374.6563 Q769.0938,374.4688 769.0938,373.7969 L767.6094,373.7969 Z "
                  fill="#000000"/>
            <text fill="#000000" font-family="sans-serif" font-size="14" lengthAdjust="spacing" textLength="64"
                  x="789.25" y="378.7969">DimToken
            </text>
            <line style="stroke:#181818;stroke-width:0.5;" x1="720" x2="890" y1="389" y2="389"/>
            <text fill="#000000" font-family="sans-serif" font-size="14" font-weight="bold" lengthAdjust="spacing"
                  textLength="122" x="725" y="408.1074">SurrogateKey: int
            </text>
            <text fill="#000000" font-family="sans-serif" font-size="14" lengthAdjust="spacing" textLength="34" x="851"
                  y="408.1074">&#171;PK&#187;
            </text>
            <line style="stroke:#181818;stroke-width:1.0;" x1="720" x2="890" y1="415.6211" y2="415.6211"/>
            <text fill="#000000" font-family="sans-serif" font-size="14" lengthAdjust="spacing" textLength="137" x="725"
                  y="434.7285">Address: varbinary(1)
            </text>
            <text fill="#000000" font-family="sans-serif" font-size="14" lengthAdjust="spacing" textLength="120" x="725"
                  y="453.3496">Symbol: varchar(4)
            </text>
            <text fill="#000000" font-family="sans-serif" font-size="14" lengthAdjust="spacing" textLength="118" x="725"
                  y="471.9707">Name: varchar(50)
            </text>
            <text fill="#000000" font-family="sans-serif" font-size="14" lengthAdjust="spacing" textLength="99" x="725"
                  y="490.5918">Decimals: bigint
            </text>
            <text fill="#000000" font-family="sans-serif" font-size="14" lengthAdjust="spacing" textLength="68" x="725"
                  y="509.2129">ERC20: bit
            </text>
            <text fill="#000000" font-family="sans-serif" font-size="14" lengthAdjust="spacing" textLength="76" x="725"
                  y="527.834">ERC721: bit
            </text>
        </g><!--class DimTokenSnapshot-->
        <g id="elem_DimTokenSnapshot">
            <rect codeLine="38" fill="#F1F1F1" height="103.8633" id="DimTokenSnapshot" rx="2.5" ry="2.5"
                  style="stroke:#181818;stroke-width:0.5;" width="172" x="719" y="90.5"/>
            <ellipse cx="741.2" cy="106.5" fill="#ADD1B2" rx="11" ry="11" style="stroke:#181818;stroke-width:1.0;"/>
            <path d="M740.0594,107.2969 L740.0594,109.7969 L744.3875,109.7969 L744.3875,108.875 Q744.3875,108.2656 744.6219,108 Q744.8719,107.7344 745.2469,107.7344 Q745.6219,107.7344 745.8563,108 Q746.0906,108.2656 746.0906,108.875 L746.0906,111.5 L738.0906,111.5 Q737.4656,111.5 737.2,111.2656 Q736.95,111.0313 736.95,110.6406 Q736.95,110.2656 737.2156,110.0313 Q737.4813,109.7969 738.0906,109.7969 L738.3563,109.7969 L738.3563,103.1406 L738.0906,103.1406 Q737.4656,103.1406 737.2,102.9063 Q736.95,102.6719 736.95,102.2813 Q736.95,101.9063 737.2,101.6719 Q737.4656,101.4375 738.0906,101.4375 L745.7156,101.4375 L745.7156,104.0313 Q745.7156,104.6406 745.4813,104.9063 Q745.2625,105.1563 744.8719,105.1563 Q744.4969,105.1563 744.2625,104.9063 Q744.0281,104.6406 744.0281,104.0313 L744.0281,103.1406 L740.0594,103.1406 L740.0594,105.5938 L741.5438,105.5938 Q741.5438,104.9375 741.6688,104.75 Q741.9344,104.3438 742.4031,104.3438 Q742.7781,104.3438 743.0125,104.6094 Q743.2469,104.8594 743.2469,105.4688 L743.2469,107.4375 Q743.2469,107.9844 743.1219,108.1719 Q742.8563,108.5625 742.4031,108.5625 Q741.9344,108.5625 741.6688,108.1563 Q741.5438,107.9688 741.5438,107.2969 L740.0594,107.2969 Z "
                  fill="#000000"/>
            <text fill="#000000" font-family="sans-serif" font-size="14" lengthAdjust="spacing" textLength="124"
                  x="756.8" y="112.2969">DimTokenSnapshot
            </text>
            <line style="stroke:#181818;stroke-width:0.5;" x1="720" x2="890" y1="122.5" y2="122.5"/>
            <text fill="#000000" font-family="sans-serif" font-size="14" font-weight="bold" lengthAdjust="spacing"
                  textLength="122" x="725" y="141.6074">SurrogateKey: int
            </text>
            <text fill="#000000" font-family="sans-serif" font-size="14" lengthAdjust="spacing" textLength="34" x="851"
                  y="141.6074">&#171;PK&#187;
            </text>
            <line style="stroke:#181818;stroke-width:1.0;" x1="720" x2="890" y1="149.1211" y2="149.1211"/>
            <text fill="#000000" font-family="sans-serif" font-size="14" lengthAdjust="spacing" textLength="125" x="725"
                  y="168.2285">TokenKey: int &#171;FK&#187;
            </text>
            <text fill="#000000" font-family="sans-serif" font-size="14" lengthAdjust="spacing" textLength="117" x="725"
                  y="186.8496">TotalSupply: bigint
            </text>
        </g><!--class FactBalance-->
        <g id="elem_FactBalance">
            <rect codeLine="44" fill="#F1F1F1" height="122.4844" id="FactBalance" rx="2.5" ry="2.5"
                  style="stroke:#181818;stroke-width:0.5;" width="172" x="7" y="385"/>
            <ellipse cx="49.45" cy="401" fill="#ADD1B2" rx="11" ry="11" style="stroke:#181818;stroke-width:1.0;"/>
            <path d="M48.3094,401.7969 L48.3094,404.2969 L52.6375,404.2969 L52.6375,403.375 Q52.6375,402.7656 52.8719,402.5 Q53.1219,402.2344 53.4969,402.2344 Q53.8719,402.2344 54.1063,402.5 Q54.3406,402.7656 54.3406,403.375 L54.3406,406 L46.3406,406 Q45.7156,406 45.45,405.7656 Q45.2,405.5313 45.2,405.1406 Q45.2,404.7656 45.4656,404.5313 Q45.7313,404.2969 46.3406,404.2969 L46.6063,404.2969 L46.6063,397.6406 L46.3406,397.6406 Q45.7156,397.6406 45.45,397.4063 Q45.2,397.1719 45.2,396.7813 Q45.2,396.4063 45.45,396.1719 Q45.7156,395.9375 46.3406,395.9375 L53.9656,395.9375 L53.9656,398.5313 Q53.9656,399.1406 53.7313,399.4063 Q53.5125,399.6563 53.1219,399.6563 Q52.7469,399.6563 52.5125,399.4063 Q52.2781,399.1406 52.2781,398.5313 L52.2781,397.6406 L48.3094,397.6406 L48.3094,400.0938 L49.7938,400.0938 Q49.7938,399.4375 49.9188,399.25 Q50.1844,398.8438 50.6531,398.8438 Q51.0281,398.8438 51.2625,399.1094 Q51.4969,399.3594 51.4969,399.9688 L51.4969,401.9375 Q51.4969,402.4844 51.3719,402.6719 Q51.1063,403.0625 50.6531,403.0625 Q50.1844,403.0625 49.9188,402.6563 Q49.7938,402.4688 49.7938,401.7969 L48.3094,401.7969 Z "
                  fill="#000000"/>
            <text fill="#000000" font-family="sans-serif" font-size="14" lengthAdjust="spacing" textLength="79"
                  x="69.55" y="406.7969">FactBalance
            </text>
            <line style="stroke:#181818;stroke-width:0.5;" x1="8" x2="178" y1="417" y2="417"/>
            <text fill="#000000" font-family="sans-serif" font-size="14" font-weight="bold" lengthAdjust="spacing"
                  textLength="122" x="13" y="436.1074">SurrogateKey: int
            </text>
            <text fill="#000000" font-family="sans-serif" font-size="14" lengthAdjust="spacing" textLength="34" x="139"
                  y="436.1074">&#171;PK&#187;
            </text>
            <line style="stroke:#181818;stroke-width:1.0;" x1="8" x2="178" y1="443.6211" y2="443.6211"/>
            <text fill="#000000" font-family="sans-serif" font-size="14" lengthAdjust="spacing" textLength="154" x="13"
                  y="462.7285">TimestampKey: int &#171;FK&#187;
            </text>
            <text fill="#000000" font-family="sans-serif" font-size="14" lengthAdjust="spacing" textLength="137" x="13"
                  y="481.3496">Address: varbinary(1)
            </text>
            <text fill="#000000" font-family="sans-serif" font-size="14" lengthAdjust="spacing" textLength="120" x="13"
                  y="499.9707">BalanceETH: bigint
            </text>
        </g><!--class FactTransaction-->
        <g id="elem_FactTransaction">
            <rect codeLine="51" fill="#F1F1F1" height="271.4531" id="FactTransaction" rx="2.5" ry="2.5"
                  style="stroke:#181818;stroke-width:0.5;" width="184" x="416" y="7"/>
            <ellipse cx="453.05" cy="23" fill="#ADD1B2" rx="11" ry="11" style="stroke:#181818;stroke-width:1.0;"/>
            <path d="M451.9094,23.7969 L451.9094,26.2969 L456.2375,26.2969 L456.2375,25.375 Q456.2375,24.7656 456.4719,24.5 Q456.7219,24.2344 457.0969,24.2344 Q457.4719,24.2344 457.7063,24.5 Q457.9406,24.7656 457.9406,25.375 L457.9406,28 L449.9406,28 Q449.3156,28 449.05,27.7656 Q448.8,27.5313 448.8,27.1406 Q448.8,26.7656 449.0656,26.5313 Q449.3313,26.2969 449.9406,26.2969 L450.2063,26.2969 L450.2063,19.6406 L449.9406,19.6406 Q449.3156,19.6406 449.05,19.4063 Q448.8,19.1719 448.8,18.7813 Q448.8,18.4063 449.05,18.1719 Q449.3156,17.9375 449.9406,17.9375 L457.5656,17.9375 L457.5656,20.5313 Q457.5656,21.1406 457.3313,21.4063 Q457.1125,21.6563 456.7219,21.6563 Q456.3469,21.6563 456.1125,21.4063 Q455.8781,21.1406 455.8781,20.5313 L455.8781,19.6406 L451.9094,19.6406 L451.9094,22.0938 L453.3938,22.0938 Q453.3938,21.4375 453.5188,21.25 Q453.7844,20.8438 454.2531,20.8438 Q454.6281,20.8438 454.8625,21.1094 Q455.0969,21.3594 455.0969,21.9688 L455.0969,23.9375 Q455.0969,24.4844 454.9719,24.6719 Q454.7063,25.0625 454.2531,25.0625 Q453.7844,25.0625 453.5188,24.6563 Q453.3938,24.4688 453.3938,23.7969 L451.9094,23.7969 Z "
                  fill="#000000"/>
            <text fill="#000000" font-family="sans-serif" font-size="14" lengthAdjust="spacing" textLength="103"
                  x="471.95" y="28.7969">FactTransaction
            </text>
            <line style="stroke:#181818;stroke-width:0.5;" x1="417" x2="599" y1="39" y2="39"/>
            <text fill="#000000" font-family="sans-serif" font-size="14" font-weight="bold" lengthAdjust="spacing"
                  textLength="122" x="422" y="58.1074">SurrogateKey: int
            </text>
            <text fill="#000000" font-family="sans-serif" font-size="14" lengthAdjust="spacing" textLength="34" x="548"
                  y="58.1074">&#171;PK&#187;
            </text>
            <line style="stroke:#181818;stroke-width:1.0;" x1="417" x2="599" y1="65.6211" y2="65.6211"/>
            <text fill="#000000" font-family="sans-serif" font-size="14" lengthAdjust="spacing" textLength="119" x="422"
                  y="84.7285">BlockKey: int &#171;FK&#187;
            </text>
            <text fill="#000000" font-family="sans-serif" font-size="14" lengthAdjust="spacing" textLength="125" x="422"
                  y="103.3496">TokenKey: int &#171;FK&#187;
            </text>
            <text fill="#000000" font-family="sans-serif" font-size="14" lengthAdjust="spacing" textLength="154" x="422"
                  y="121.9707">TimestampKey: int &#171;FK&#187;
            </text>
            <text fill="#000000" font-family="sans-serif" font-size="14" lengthAdjust="spacing" textLength="172" x="422"
                  y="140.5918">TransactionHash: binary(1)
            </text>
            <text fill="#000000" font-family="sans-serif" font-size="14" lengthAdjust="spacing" textLength="170" x="422"
                  y="159.2129">FromAddress: varbinary(1)
            </text>
            <text fill="#000000" font-family="sans-serif" font-size="14" lengthAdjust="spacing" textLength="154" x="422"
                  y="177.834">ToAddress: varbinary(1)
            </text>
            <text fill="#000000" font-family="sans-serif" font-size="14" lengthAdjust="spacing" textLength="105" x="422"
                  y="196.4551">ValueETH: bigint
            </text>
            <text fill="#000000" font-family="sans-serif" font-size="14" lengthAdjust="spacing" textLength="100" x="422"
                  y="215.0762">GasUsed: bigint
            </text>
            <text fill="#000000" font-family="sans-serif" font-size="14" lengthAdjust="spacing" textLength="100" x="422"
                  y="233.6973">GasPrice: bigint
            </text>
            <text fill="#000000" font-family="sans-serif" font-size="14" lengthAdjust="spacing" textLength="96" x="422"
                  y="252.3184">GasPaid: bigint
            </text>
            <text fill="#000000" font-family="sans-serif" font-size="14" lengthAdjust="spacing" textLength="130" x="422"
                  y="270.9395">TransactionType: int
            </text>
        </g><!--link DimBlock to DimTimestamp-->
        <g id="link_DimBlock_DimTimestamp">
            <path codeLine="67"
                  d="M306.4936,553.1573 C305.7236,563.1973 306.45,555.34 306,565 C305.26,580.82 304.9485,589.3701 304.8485,605.8501 "
                  fill="none" id="DimBlock-DimTimestamp"
                  style="stroke:#181818;stroke-width:1.0;stroke-dasharray:7.0,7.0;"/>
            <line style="stroke:#181818;stroke-width:1.0;" x1="307.2583" x2="301.8876" y1="543.1866" y2="534.7512"/>
            <line style="stroke:#181818;stroke-width:1.0;" x1="307.2583" x2="313.8524" y1="543.1866" y2="535.6688"/>
            <line style="stroke:#181818;stroke-width:1.0;" x1="307.2583" x2="307.87" y1="543.1866" y2="535.21"/>
            <ellipse cx="306.7994" cy="549.169" fill="none" rx="4" ry="4" style="stroke:#181818;stroke-width:1.0;"/>
            <line style="stroke:#181818;stroke-width:1.0;" x1="308.8242" x2="300.8243" y1="609.8743" y2="609.8258"/>
            <line style="stroke:#181818;stroke-width:1.0;" x1="308.8424" x2="300.8425" y1="606.8744" y2="606.8259"/>
            <line style="stroke:#181818;stroke-width:1.0;" x1="304.8485" x2="304.8" y1="605.8501" y2="613.85"/>
            <text fill="#000000" font-family="sans-serif" font-size="13" lengthAdjust="spacing" textLength="174" x="307"
                  y="580.0283">TimestampKey: SurrogateKey
            </text>
        </g><!--link DimTokenSnapshot to DimToken-->
        <g id="link_DimTokenSnapshot_DimToken">
            <path codeLine="68" d="M805,212.65 C805,257 805,296.17 805,348.91 " fill="none"
                  id="DimTokenSnapshot-DimToken" style="stroke:#181818;stroke-width:1.0;stroke-dasharray:7.0,7.0;"/>
            <line style="stroke:#181818;stroke-width:1.0;" x1="805" x2="799" y1="202.65" y2="194.65"/>
            <line style="stroke:#181818;stroke-width:1.0;" x1="805" x2="811" y1="202.65" y2="194.65"/>
            <line style="stroke:#181818;stroke-width:1.0;" x1="805" x2="805" y1="202.65" y2="194.65"/>
            <ellipse cx="805" cy="208.65" fill="none" rx="4" ry="4" style="stroke:#181818;stroke-width:1.0;"/>
            <line style="stroke:#181818;stroke-width:1.0;" x1="809" x2="801" y1="352.91" y2="352.91"/>
            <line style="stroke:#181818;stroke-width:1.0;" x1="809" x2="801" y1="349.91" y2="349.91"/>
            <line style="stroke:#181818;stroke-width:1.0;" x1="805" x2="805" y1="348.91" y2="356.91"/>
            <text fill="#000000" font-family="sans-serif" font-size="13" lengthAdjust="spacing" textLength="145" x="806"
                  y="323.0283">TokenKey: SurrogateKey
            </text>
        </g><!--link FactBalance to DimTimestamp-->
        <g id="link_FactBalance_DimTimestamp">
            <path codeLine="69"
                  d="M100.4831,524.922 C104.4131,549.942 108.83,560.73 122,584 C146.79,627.8 180.1918,661.8756 216.5518,691.9056 "
                  fill="none" id="FactBalance-DimTimestamp"
                  style="stroke:#181818;stroke-width:1.0;stroke-dasharray:7.0,7.0;"/>
            <line style="stroke:#181818;stroke-width:1.0;" x1="98.9314" x2="91.7627" y1="515.0431" y2="508.071"/>
            <line style="stroke:#181818;stroke-width:1.0;" x1="98.9314" x2="103.6173" y1="515.0431" y2="506.209"/>
            <line style="stroke:#181818;stroke-width:1.0;" x1="98.9314" x2="97.69" y1="515.0431" y2="507.14"/>
            <ellipse cx="99.8624" cy="520.9704" fill="none" rx="4" ry="4" style="stroke:#181818;stroke-width:1.0;"/>
            <line style="stroke:#181818;stroke-width:1.0;" x1="222.1831" x2="217.0887" y1="691.3687" y2="697.5369"/>
            <line style="stroke:#181818;stroke-width:1.0;" x1="219.87" x2="214.7756" y1="689.4583" y2="695.6265"/>
            <line style="stroke:#181818;stroke-width:1.0;" x1="216.5518" x2="222.72" y1="691.9056" y2="697"/>
            <text fill="#000000" font-family="sans-serif" font-size="13" lengthAdjust="spacing" textLength="174" x="123"
                  y="580.0283">TimestampKey: SurrogateKey
            </text>
        </g><!--link FactTransaction to DimBlock-->
        <g id="link_FactTransaction_DimBlock">
            <path codeLine="70"
                  d="M402.4813,223.5098 C372.6513,250.2698 355.83,271.36 337,308 C329.31,322.96 325.8145,332.1289 322.6345,348.9689 "
                  fill="none" id="FactTransaction-DimBlock"
                  style="stroke:#181818;stroke-width:1.0;stroke-dasharray:7.0,7.0;"/>
            <line style="stroke:#181818;stroke-width:1.0;" x1="409.925" x2="411.8734" y1="216.8321" y2="207.0238"/>
            <line style="stroke:#181818;stroke-width:1.0;" x1="409.925" x2="419.8866" y1="216.8321" y2="215.9562"/>
            <line style="stroke:#181818;stroke-width:1.0;" x1="409.925" x2="415.88" y1="216.8321" y2="211.49"/>
            <ellipse cx="405.4588" cy="220.8387" fill="none" rx="4" ry="4" style="stroke:#181818;stroke-width:1.0;"/>
            <line style="stroke:#181818;stroke-width:1.0;" x1="325.8228" x2="317.9617" y1="353.6417" y2="352.1572"/>
            <line style="stroke:#181818;stroke-width:1.0;" x1="326.3794" x2="318.5184" y1="350.6938" y2="349.2093"/>
            <line style="stroke:#181818;stroke-width:1.0;" x1="322.6345" x2="321.15" y1="348.9689" y2="356.83"/>
            <text fill="#000000" font-family="sans-serif" font-size="13" lengthAdjust="spacing" textLength="143" x="338"
                  y="323.0283">BlockKey: SurrogateKey
            </text>
        </g><!--link FactTransaction to DimToken-->
        <g id="link_FactTransaction_DimToken">
            <path codeLine="71"
                  d="M611.5061,286.3572 C627.2961,305.4372 632.73,310.38 650,327 C666.53,342.91 673.61,343.28 692,357 C700.77,363.54 703.5083,365.5662 712.5583,372.4962 "
                  fill="none" id="FactTransaction-DimToken"
                  style="stroke:#181818;stroke-width:1.0;stroke-dasharray:7.0,7.0;"/>
            <line style="stroke:#181818;stroke-width:1.0;" x1="605.1305" x2="595.4076" y1="278.6532" y2="276.3154"/>
            <line style="stroke:#181818;stroke-width:1.0;" x1="605.1305" x2="604.6524" y1="278.6532" y2="268.6646"/>
            <line style="stroke:#181818;stroke-width:1.0;" x1="605.1305" x2="600.03" y1="278.6532" y2="272.49"/>
            <ellipse cx="608.9558" cy="283.2756" fill="none" rx="4" ry="4" style="stroke:#181818;stroke-width:1.0;"/>
            <line style="stroke:#181818;stroke-width:1.0;" x1="718.166" x2="713.3023" y1="371.7523" y2="378.104"/>
            <line style="stroke:#181818;stroke-width:1.0;" x1="715.7842" x2="710.9204" y1="369.9284" y2="376.28"/>
            <line style="stroke:#181818;stroke-width:1.0;" x1="712.5583" x2="718.91" y1="372.4962" y2="377.36"/>
            <text fill="#000000" font-family="sans-serif" font-size="13" lengthAdjust="spacing" textLength="145" x="651"
                  y="323.0283">TokenKey: SurrogateKey
            </text>
        </g><!--link FactTransaction to DimTimestamp-->
        <g id="link_FactTransaction_DimTimestamp">
            <path codeLine="72"
                  d="M512.078,296.1389 C513.278,405.2389 509.69,531.22 486,584 C466.24,628.03 435.9607,661.6298 401.3207,691.3598 "
                  fill="none" id="FactTransaction-DimTimestamp"
                  style="stroke:#181818;stroke-width:1.0;stroke-dasharray:7.0,7.0;"/>
            <line style="stroke:#181818;stroke-width:1.0;" x1="511.968" x2="505.8804" y1="286.1395" y2="278.206"/>
            <line style="stroke:#181818;stroke-width:1.0;" x1="511.968" x2="517.8796" y1="286.1395" y2="278.074"/>
            <line style="stroke:#181818;stroke-width:1.0;" x1="511.968" x2="511.88" y1="286.1395" y2="278.14"/>
            <ellipse cx="512.034" cy="292.1392" fill="none" rx="4" ry="4" style="stroke:#181818;stroke-width:1.0;"/>
            <line style="stroke:#181818;stroke-width:1.0;" x1="400.8905" x2="395.6802" y1="697.0002" y2="690.9295"/>
            <line style="stroke:#181818;stroke-width:1.0;" x1="403.167" x2="397.9568" y1="695.0464" y2="688.9757"/>
            <line style="stroke:#181818;stroke-width:1.0;" x1="401.3207" x2="395.25" y1="691.3598" y2="696.57"/>
            <text fill="#000000" font-family="sans-serif" font-size="13" lengthAdjust="spacing" textLength="174" x="512"
                  y="451.5283">TimestampKey: SurrogateKey
            </text>
        </g><!--SRC=[hLHTIyCm57tVhmW-pO6oYIAECTY7TQ2JQJl59xdhBZQiJKgIYaNzxpRTbZLRAnJDmyZzp3btvnQPeYebOneDG-wlo6U34D9gkOaG_0qKtcBQ9PIfLelqUhFRVb_7JqxqhqSZb0gYU9kJPJYRZBpP16JG9UyW5fI1I9kTOnsw0Nb78wgwP47ViggDRovnMNHv0fW4Nr7EHZnXLleG93g8CnHPeGbyDz2GCTZg49ep-c4AY-zD9dc9lawdvkgwvZgOlivsWJ6avlwCkBACUuWm7ueVW6XUvIEPSgQ2tHFQAajxI40e52Rn1M5ZMDJv2baTseFbKg2KX_-KcqOB7kvGdETU6zb5EtUEqQSHXB8ujUl7qLbRExRMvLbdRHx0THd4Ck2gblnqOOdqFAuWT9Cu3jD3QJYPeeOG0lFnlwHUERxDEzVUf1n7GU5riEIhLSgxOXw_O2z0M2-hHS0HFAfav_7Aq1E4YKMxVCCprqnG7_TzGAi-15uQurRm3VF9CkURdvv-VH5x__NfaYDx2iKv7pKEL6XrojTfUtGdCsUxIr5QVyEpBmwhayqvwxJJGuqkjLXLTwd1wWS0]-->
    </g>
</svg>