<?xml version="1.0" encoding="us-ascii" standalone="no"?><svg xmlns="http://www.w3.org/2000/svg" xmlns:xlink="http://www.w3.org/1999/xlink" contentStyleType="text/css" height="476px" preserveAspectRatio="none" style="width:327px;height:476px;background:#FFFFFF;" version="1.1" viewBox="0 0 327 476" width="327px" zoomAndPan="magnify"><defs/><g><!--class Transfers--><g id="elem_Transfers"><rect codeLine="1" fill="#F1F1F1" height="455.4219" id="Transfers" rx="2.5" ry="2.5" style="stroke:#181818;stroke-width:0.5;" width="306" x="7" y="7"/><ellipse cx="122.25" cy="23" fill="#ADD1B2" rx="11" ry="11" style="stroke:#181818;stroke-width:1.0;"/><path d="M121.0469,23.875 L122.5,23.875 L122.5,23.9844 C122.5,24.3906 122.5313,24.5469 122.6094,24.7031 C122.7656,24.9531 123.0469,25.1094 123.3438,25.1094 C123.5938,25.1094 123.8594,24.9688 124.0156,24.75 C124.1406,24.5938 124.1719,24.4375 124.1719,23.9844 L124.1719,22.0625 C124.1719,21.9063 124.1719,21.8594 124.1563,21.7031 C124.0938,21.2344 123.7813,20.9219 123.3281,20.9219 C123.0781,20.9219 122.8125,21.0625 122.6406,21.2813 C122.5313,21.4531 122.5,21.6094 122.5,22.0625 L122.5,22.1875 L121.0469,22.1875 L121.0469,19.7813 L125.0313,19.7813 L125.0313,20.6406 C125.0313,21.0469 125.0625,21.2188 125.1406,21.375 C125.3125,21.625 125.5938,21.7813 125.875,21.7813 C126.1406,21.7813 126.4063,21.6406 126.5781,21.4219 C126.6875,21.25 126.7188,21.1094 126.7188,20.6406 L126.7188,18.0938 L119.0938,18.0938 C118.6563,18.0938 118.5313,18.1094 118.375,18.2031 C118.125,18.3594 117.9688,18.6563 117.9688,18.9375 C117.9688,19.2188 118.1094,19.4688 118.3281,19.6406 C118.4844,19.75 118.6719,19.7813 119.0938,19.7813 L119.3438,19.7813 L119.3438,26.2969 L119.0938,26.2969 C118.6875,26.2969 118.5313,26.3125 118.375,26.4219 C118.125,26.5938 117.9688,26.8594 117.9688,27.1563 C117.9688,27.4219 118.1094,27.6719 118.3281,27.8281 C118.4688,27.9531 118.7031,28 119.0938,28 L127.0938,28 L127.0938,25.4219 C127.0938,24.9844 127.0625,24.8438 126.9844,24.6875 C126.8125,24.4375 126.5313,24.2813 126.25,24.2813 C125.9844,24.2813 125.7188,24.3906 125.5469,24.6406 C125.4375,24.7969 125.4063,24.9375 125.4063,25.4219 L125.4063,26.2969 L121.0469,26.2969 L121.0469,23.875 Z " fill="#000000"/><text fill="#000000" font-family="sans-serif" font-size="14" lengthAdjust="spacing" textLength="67" x="142.75" y="27.8467">Transfers</text><line style="stroke:#181818;stroke-width:0.5;" x1="8" x2="312" y1="39" y2="39"/><text fill="#000000" font-family="sans-serif" font-size="14" lengthAdjust="spacing" textLength="147" x="13" y="55.9951">TransferID : int &#171;PK&#187;</text><line style="stroke:#181818;stroke-width:1.0;" x1="8" x2="312" y1="63.2969" y2="63.2969"/><text fill="#000000" font-family="sans-serif" font-size="14" lengthAdjust="spacing" textLength="208" x="13" y="80.292">TokenAddress : varchar(max)</text><text fill="#000000" font-family="sans-serif" font-size="14" lengthAdjust="spacing" textLength="200" x="13" y="96.5889">FromAddress : varchar(max)</text><text fill="#000000" font-family="sans-serif" font-size="14" lengthAdjust="spacing" textLength="181" x="13" y="112.8857">ToAddress : varchar(max)</text><text fill="#000000" font-family="sans-serif" font-size="14" lengthAdjust="spacing" textLength="294" x="13" y="129.1826">TokenTransferTimestamp : datetime2(6)</text><text fill="#000000" font-family="sans-serif" font-size="14" lengthAdjust="spacing" textLength="224" x="13" y="145.4795">TransactionHash : varchar(max)</text><text fill="#000000" font-family="sans-serif" font-size="14" lengthAdjust="spacing" textLength="166" x="13" y="161.7764">TransactionGas : bigint</text><text fill="#000000" font-family="sans-serif" font-size="14" lengthAdjust="spacing" textLength="200" x="13" y="178.0732">TransactionGasUsed : bigint</text><text fill="#000000" font-family="sans-serif" font-size="14" lengthAdjust="spacing" textLength="213" x="13" y="194.3701">GasPriceETH : numeric(20, 18)</text><text fill="#000000" font-family="sans-serif" font-size="14" lengthAdjust="spacing" textLength="205" x="13" y="210.667">GasPriceEUR : numeric(12, 6)</text><text fill="#000000" font-family="sans-serif" font-size="14" lengthAdjust="spacing" textLength="206" x="13" y="226.9639">GasPriceUSD : numeric(12, 6)</text><text fill="#000000" font-family="sans-serif" font-size="14" lengthAdjust="spacing" textLength="180" x="13" y="243.2607">BlockHash : varchar(max)</text><text fill="#000000" font-family="sans-serif" font-size="14" lengthAdjust="spacing" textLength="156" x="13" y="259.5576">BlockGasUsed : bigint</text><text fill="#000000" font-family="sans-serif" font-size="14" lengthAdjust="spacing" textLength="223" x="13" y="275.8545">BlockTransactionCount : bigint</text><text fill="#000000" font-family="sans-serif" font-size="14" lengthAdjust="spacing" textLength="159" x="13" y="292.1514">BlockGasLimit : bigint</text><text fill="#000000" font-family="sans-serif" font-size="14" lengthAdjust="spacing" textLength="206" x="13" y="308.4482">BlockBaseFeePerGas : bigint</text><text fill="#000000" font-family="sans-serif" font-size="14" lengthAdjust="spacing" textLength="192" x="13" y="324.7451">TokenName : varchar(max)</text><text fill="#000000" font-family="sans-serif" font-size="14" lengthAdjust="spacing" textLength="205" x="13" y="341.042">TokenSymbol : varchar(max)</text><text fill="#000000" font-family="sans-serif" font-size="14" lengthAdjust="spacing" textLength="237" x="13" y="357.3389">TokenTotalSupply : varchar(max)</text><text fill="#000000" font-family="sans-serif" font-size="14" lengthAdjust="spacing" textLength="216" x="13" y="373.6357">TokenDecimals : varchar(max)</text><text fill="#000000" font-family="sans-serif" font-size="14" lengthAdjust="spacing" textLength="155" x="13" y="389.9326">ContractIsERC20 : bit</text><text fill="#000000" font-family="sans-serif" font-size="14" lengthAdjust="spacing" textLength="164" x="13" y="406.2295">ContractIsERC721 : bit</text><text fill="#000000" font-family="sans-serif" font-size="14" lengthAdjust="spacing" textLength="182" x="13" y="422.5264">ValueETH : numeric(12, 6)</text><text fill="#000000" font-family="sans-serif" font-size="14" lengthAdjust="spacing" textLength="172" x="13" y="438.8232">ValueEUR : numeric(8, 2)</text><text fill="#000000" font-family="sans-serif" font-size="14" lengthAdjust="spacing" textLength="173" x="13" y="455.1201">ValueUSD : numeric(8, 2)</text></g><!--SRC=[VP51Ru9048Nl_HKRJv1W8XoiQOn91QscJMC4UXzXMZUoksHtQKgQ_lSk64KAz3ZplPrzCm-vfheaeqW2L-yerOXytn52BlKs80-4SatcyztpOc7GU5npSKB-cAOIbJAAJv394QJ5uCkky5eADamZyHypWo-_HvIXqi1o8qn1epQrPqtjgqD8D1Ly0-hODwfHF47rru5-c5MwA5QOjh3fxIHDS1LjJ9yN34rbUHE7k3Ex9OZtDmBNSyYqnUCmwENBJ2Id0TirwtDLWnldlYXCC1s5UVf26UqXIr2uHjoXxDoZklehC1nA92pPGMI3UGaDMLZaULOEIG9CA8EiBt9VS2tDIbkrsllUf3QcE-3USnlo1bdn9vtck6VOIcRc4AzXxLJExESN]--></g></svg>