<?xml version="1.0" encoding="us-ascii" standalone="no"?><svg xmlns="http://www.w3.org/2000/svg" xmlns:xlink="http://www.w3.org/1999/xlink" contentStyleType="text/css" height="833px" preserveAspectRatio="none" style="width:850px;height:833px;background:#FFFFFF;" version="1.1" viewBox="0 0 850 833" width="850px" zoomAndPan="magnify"><defs/><g><!--class FactTransaction--><g id="elem_FactTransaction"><rect codeLine="1" fill="#F1F1F1" height="243.5625" id="FactTransaction" rx="2.5" ry="2.5" style="stroke:#181818;stroke-width:0.5;" width="224" x="292.8943" y="583"/><ellipse cx="343.1443" cy="599" fill="#ADD1B2" rx="11" ry="11" style="stroke:#181818;stroke-width:1.0;"/><path d="M341.9412,599.875 L343.3943,599.875 L343.3943,599.9844 C343.3943,600.3906 343.4256,600.5469 343.5037,600.7031 C343.6599,600.9531 343.9412,601.1094 344.2381,601.1094 C344.4881,601.1094 344.7537,600.9688 344.9099,600.75 C345.0349,600.5938 345.0662,600.4375 345.0662,599.9844 L345.0662,598.0625 C345.0662,597.9063 345.0662,597.8594 345.0506,597.7031 C344.9881,597.2344 344.6756,596.9219 344.2224,596.9219 C343.9724,596.9219 343.7068,597.0625 343.5349,597.2813 C343.4256,597.4531 343.3943,597.6094 343.3943,598.0625 L343.3943,598.1875 L341.9412,598.1875 L341.9412,595.7813 L345.9256,595.7813 L345.9256,596.6406 C345.9256,597.0469 345.9568,597.2188 346.0349,597.375 C346.2068,597.625 346.4881,597.7813 346.7693,597.7813 C347.0349,597.7813 347.3006,597.6406 347.4724,597.4219 C347.5818,597.25 347.6131,597.1094 347.6131,596.6406 L347.6131,594.0938 L339.9881,594.0938 C339.5506,594.0938 339.4256,594.1094 339.2693,594.2031 C339.0193,594.3594 338.8631,594.6563 338.8631,594.9375 C338.8631,595.2188 339.0037,595.4688 339.2224,595.6406 C339.3787,595.75 339.5662,595.7813 339.9881,595.7813 L340.2381,595.7813 L340.2381,602.2969 L339.9881,602.2969 C339.5818,602.2969 339.4256,602.3125 339.2693,602.4219 C339.0193,602.5938 338.8631,602.8594 338.8631,603.1563 C338.8631,603.4219 339.0037,603.6719 339.2224,603.8281 C339.3631,603.9531 339.5974,604 339.9881,604 L347.9881,604 L347.9881,601.4219 C347.9881,600.9844 347.9568,600.8438 347.8787,600.6875 C347.7068,600.4375 347.4256,600.2813 347.1443,600.2813 C346.8787,600.2813 346.6131,600.3906 346.4412,600.6406 C346.3318,600.7969 346.3006,600.9375 346.3006,601.4219 L346.3006,602.2969 L341.9412,602.2969 L341.9412,599.875 Z " fill="#000000"/><text fill="#000000" font-family="sans-serif" font-size="14" lengthAdjust="spacing" textLength="115" x="363.6443" y="603.8467">FactTransaction</text><line style="stroke:#181818;stroke-width:0.5;" x1="293.8943" x2="515.8943" y1="615" y2="615"/><text fill="#000000" font-family="sans-serif" font-size="14" lengthAdjust="spacing" textLength="170" x="298.8943" y="631.9951">SurrogateKey : int &#171;PK&#187;</text><line style="stroke:#181818;stroke-width:1.0;" x1="293.8943" x2="515.8943" y1="639.2969" y2="639.2969"/><text fill="#000000" font-family="sans-serif" font-size="14" lengthAdjust="spacing" textLength="138" x="298.8943" y="656.292">BlockKey : int &#171;FK&#187;</text><text fill="#000000" font-family="sans-serif" font-size="14" lengthAdjust="spacing" textLength="181" x="298.8943" y="672.5889">FromWalletKey : int &#171;FK&#187;</text><text fill="#000000" font-family="sans-serif" font-size="14" lengthAdjust="spacing" textLength="162" x="298.8943" y="688.8857">ToWalletKey : int &#171;FK&#187;</text><text fill="#000000" font-family="sans-serif" font-size="14" lengthAdjust="spacing" textLength="143" x="298.8943" y="705.1826">TokenKey : int &#171;FK&#187;</text><text fill="#000000" font-family="sans-serif" font-size="14" lengthAdjust="spacing" textLength="212" x="298.8943" y="721.4795">TransactionHash : varchar(66)</text><text fill="#000000" font-family="sans-serif" font-size="14" lengthAdjust="spacing" textLength="116" x="298.8943" y="737.7764">GasUsed : bigint</text><text fill="#000000" font-family="sans-serif" font-size="14" lengthAdjust="spacing" textLength="118" x="298.8943" y="754.0732">GasPrice : bigint</text><text fill="#000000" font-family="sans-serif" font-size="14" lengthAdjust="spacing" textLength="112" x="298.8943" y="770.3701">GasPaid : bigint</text><text fill="#000000" font-family="sans-serif" font-size="14" lengthAdjust="spacing" textLength="123" x="298.8943" y="786.667">ValueETH : bigint</text><text fill="#000000" font-family="sans-serif" font-size="14" lengthAdjust="spacing" textLength="168" x="298.8943" y="802.9639">ValueEUR : numeric(8,2)</text><text fill="#000000" font-family="sans-serif" font-size="14" lengthAdjust="spacing" textLength="169" x="298.8943" y="819.2607">ValueUSD : numeric(8,2)</text></g><!--class DimTimestamp--><g id="elem_DimTimestamp"><rect codeLine="16" fill="#F1F1F1" height="259.8594" id="DimTimestamp" rx="2.5" ry="2.5" style="stroke:#181818;stroke-width:0.5;" width="184" x="397.8943" y="7"/><ellipse cx="431.3443" cy="23" fill="#ADD1B2" rx="11" ry="11" style="stroke:#181818;stroke-width:1.0;"/><path d="M430.1412,23.875 L431.5943,23.875 L431.5943,23.9844 C431.5943,24.3906 431.6256,24.5469 431.7037,24.7031 C431.8599,24.9531 432.1412,25.1094 432.4381,25.1094 C432.6881,25.1094 432.9537,24.9688 433.1099,24.75 C433.2349,24.5938 433.2662,24.4375 433.2662,23.9844 L433.2662,22.0625 C433.2662,21.9063 433.2662,21.8594 433.2506,21.7031 C433.1881,21.2344 432.8756,20.9219 432.4224,20.9219 C432.1724,20.9219 431.9068,21.0625 431.7349,21.2813 C431.6256,21.4531 431.5943,21.6094 431.5943,22.0625 L431.5943,22.1875 L430.1412,22.1875 L430.1412,19.7813 L434.1256,19.7813 L434.1256,20.6406 C434.1256,21.0469 434.1568,21.2188 434.2349,21.375 C434.4068,21.625 434.6881,21.7813 434.9693,21.7813 C435.2349,21.7813 435.5006,21.6406 435.6724,21.4219 C435.7818,21.25 435.8131,21.1094 435.8131,20.6406 L435.8131,18.0938 L428.1881,18.0938 C427.7506,18.0938 427.6256,18.1094 427.4693,18.2031 C427.2193,18.3594 427.0631,18.6563 427.0631,18.9375 C427.0631,19.2188 427.2037,19.4688 427.4224,19.6406 C427.5787,19.75 427.7662,19.7813 428.1881,19.7813 L428.4381,19.7813 L428.4381,26.2969 L428.1881,26.2969 C427.7818,26.2969 427.6256,26.3125 427.4693,26.4219 C427.2193,26.5938 427.0631,26.8594 427.0631,27.1563 C427.0631,27.4219 427.2037,27.6719 427.4224,27.8281 C427.5631,27.9531 427.7974,28 428.1881,28 L436.1881,28 L436.1881,25.4219 C436.1881,24.9844 436.1568,24.8438 436.0787,24.6875 C435.9068,24.4375 435.6256,24.2813 435.3443,24.2813 C435.0787,24.2813 434.8131,24.3906 434.6412,24.6406 C434.5318,24.7969 434.5006,24.9375 434.5006,25.4219 L434.5006,26.2969 L430.1412,26.2969 L430.1412,23.875 Z " fill="#000000"/><text fill="#000000" font-family="sans-serif" font-size="14" lengthAdjust="spacing" textLength="111" x="449.4443" y="27.8467">DimTimestamp</text><line style="stroke:#181818;stroke-width:0.5;" x1="398.8943" x2="580.8943" y1="39" y2="39"/><text fill="#000000" font-family="sans-serif" font-size="14" lengthAdjust="spacing" textLength="170" x="403.8943" y="55.9951">SurrogateKey : int &#171;PK&#187;</text><line style="stroke:#181818;stroke-width:1.0;" x1="398.8943" x2="580.8943" y1="63.2969" y2="63.2969"/><text fill="#000000" font-family="sans-serif" font-size="14" lengthAdjust="spacing" textLength="168" x="403.8943" y="80.292">UnixTimestamp : bigint</text><text fill="#000000" font-family="sans-serif" font-size="14" lengthAdjust="spacing" textLength="53" x="403.8943" y="96.5889">HH : int</text><text fill="#000000" font-family="sans-serif" font-size="14" lengthAdjust="spacing" textLength="57" x="403.8943" y="112.8857">MM : int</text><text fill="#000000" font-family="sans-serif" font-size="14" lengthAdjust="spacing" textLength="51" x="403.8943" y="129.1826">SS : int</text><text fill="#000000" font-family="sans-serif" font-size="14" lengthAdjust="spacing" textLength="83" x="403.8943" y="145.4795">AM_PM : int</text><text fill="#000000" font-family="sans-serif" font-size="14" lengthAdjust="spacing" textLength="60" x="403.8943" y="161.7764">Day : int</text><text fill="#000000" font-family="sans-serif" font-size="14" lengthAdjust="spacing" textLength="74" x="403.8943" y="178.0732">Week : int</text><text fill="#000000" font-family="sans-serif" font-size="14" lengthAdjust="spacing" textLength="167" x="403.8943" y="194.3701">WeekName : varchar(9)</text><text fill="#000000" font-family="sans-serif" font-size="14" lengthAdjust="spacing" textLength="79" x="403.8943" y="210.667">Month : int</text><text fill="#000000" font-family="sans-serif" font-size="14" lengthAdjust="spacing" textLength="172" x="403.8943" y="226.9639">MonthName : varchar(9)</text><text fill="#000000" font-family="sans-serif" font-size="14" lengthAdjust="spacing" textLength="88" x="403.8943" y="243.2607">Quarter : int</text><text fill="#000000" font-family="sans-serif" font-size="14" lengthAdjust="spacing" textLength="65" x="403.8943" y="259.5576">Year : int</text></g><!--class DimBlock--><g id="elem_DimBlock"><rect codeLine="33" fill="#F1F1F1" height="162.0781" id="DimBlock" rx="2.5" ry="2.5" style="stroke:#181818;stroke-width:0.5;" width="195" x="392.3943" y="344"/><ellipse cx="451.1443" cy="360" fill="#ADD1B2" rx="11" ry="11" style="stroke:#181818;stroke-width:1.0;"/><path d="M449.9412,360.875 L451.3943,360.875 L451.3943,360.9844 C451.3943,361.3906 451.4256,361.5469 451.5037,361.7031 C451.6599,361.9531 451.9412,362.1094 452.2381,362.1094 C452.4881,362.1094 452.7537,361.9688 452.9099,361.75 C453.0349,361.5938 453.0662,361.4375 453.0662,360.9844 L453.0662,359.0625 C453.0662,358.9063 453.0662,358.8594 453.0506,358.7031 C452.9881,358.2344 452.6756,357.9219 452.2224,357.9219 C451.9724,357.9219 451.7068,358.0625 451.5349,358.2813 C451.4256,358.4531 451.3943,358.6094 451.3943,359.0625 L451.3943,359.1875 L449.9412,359.1875 L449.9412,356.7813 L453.9256,356.7813 L453.9256,357.6406 C453.9256,358.0469 453.9568,358.2188 454.0349,358.375 C454.2068,358.625 454.4881,358.7813 454.7693,358.7813 C455.0349,358.7813 455.3006,358.6406 455.4724,358.4219 C455.5818,358.25 455.6131,358.1094 455.6131,357.6406 L455.6131,355.0938 L447.9881,355.0938 C447.5506,355.0938 447.4256,355.1094 447.2693,355.2031 C447.0193,355.3594 446.8631,355.6563 446.8631,355.9375 C446.8631,356.2188 447.0037,356.4688 447.2224,356.6406 C447.3787,356.75 447.5662,356.7813 447.9881,356.7813 L448.2381,356.7813 L448.2381,363.2969 L447.9881,363.2969 C447.5818,363.2969 447.4256,363.3125 447.2693,363.4219 C447.0193,363.5938 446.8631,363.8594 446.8631,364.1563 C446.8631,364.4219 447.0037,364.6719 447.2224,364.8281 C447.3631,364.9531 447.5974,365 447.9881,365 L455.9881,365 L455.9881,362.4219 C455.9881,361.9844 455.9568,361.8438 455.8787,361.6875 C455.7068,361.4375 455.4256,361.2813 455.1443,361.2813 C454.8787,361.2813 454.6131,361.3906 454.4412,361.6406 C454.3318,361.7969 454.3006,361.9375 454.3006,362.4219 L454.3006,363.2969 L449.9412,363.2969 L449.9412,360.875 Z " fill="#000000"/><text fill="#000000" font-family="sans-serif" font-size="14" lengthAdjust="spacing" textLength="69" x="471.6443" y="364.8467">DimBlock</text><line style="stroke:#181818;stroke-width:0.5;" x1="393.3943" x2="586.3943" y1="376" y2="376"/><text fill="#000000" font-family="sans-serif" font-size="14" lengthAdjust="spacing" textLength="170" x="398.3943" y="392.9951">SurrogateKey : int &#171;PK&#187;</text><line style="stroke:#181818;stroke-width:1.0;" x1="393.3943" x2="586.3943" y1="400.2969" y2="400.2969"/><text fill="#000000" font-family="sans-serif" font-size="14" lengthAdjust="spacing" textLength="180" x="398.3943" y="417.292">TimestampKey : int &#171;FK&#187;</text><text fill="#000000" font-family="sans-serif" font-size="14" lengthAdjust="spacing" textLength="168" x="398.3943" y="433.5889">BlockHash : varchar(66)</text><text fill="#000000" font-family="sans-serif" font-size="14" lengthAdjust="spacing" textLength="119" x="398.3943" y="449.8857">GasLimit : bigint</text><text fill="#000000" font-family="sans-serif" font-size="14" lengthAdjust="spacing" textLength="116" x="398.3943" y="466.1826">GasUsed : bigint</text><text fill="#000000" font-family="sans-serif" font-size="14" lengthAdjust="spacing" textLength="183" x="398.3943" y="482.4795">TransactionCount : bigint</text><text fill="#000000" font-family="sans-serif" font-size="14" lengthAdjust="spacing" textLength="166" x="398.3943" y="498.7764">BaseFeePerGas : bigint</text></g><!--class DimToken--><g id="elem_DimToken"><rect codeLine="44" fill="#F1F1F1" height="162.0781" id="DimToken" rx="2.5" ry="2.5" style="stroke:#181818;stroke-width:0.5;" width="182" x="661.8943" y="344"/><ellipse cx="711.6443" cy="360" fill="#ADD1B2" rx="11" ry="11" style="stroke:#181818;stroke-width:1.0;"/><path d="M710.4412,360.875 L711.8943,360.875 L711.8943,360.9844 C711.8943,361.3906 711.9256,361.5469 712.0037,361.7031 C712.1599,361.9531 712.4412,362.1094 712.7381,362.1094 C712.9881,362.1094 713.2537,361.9688 713.4099,361.75 C713.5349,361.5938 713.5662,361.4375 713.5662,360.9844 L713.5662,359.0625 C713.5662,358.9063 713.5662,358.8594 713.5506,358.7031 C713.4881,358.2344 713.1756,357.9219 712.7224,357.9219 C712.4724,357.9219 712.2068,358.0625 712.0349,358.2813 C711.9256,358.4531 711.8943,358.6094 711.8943,359.0625 L711.8943,359.1875 L710.4412,359.1875 L710.4412,356.7813 L714.4256,356.7813 L714.4256,357.6406 C714.4256,358.0469 714.4568,358.2188 714.5349,358.375 C714.7068,358.625 714.9881,358.7813 715.2693,358.7813 C715.5349,358.7813 715.8006,358.6406 715.9724,358.4219 C716.0818,358.25 716.1131,358.1094 716.1131,357.6406 L716.1131,355.0938 L708.4881,355.0938 C708.0506,355.0938 707.9256,355.1094 707.7693,355.2031 C707.5193,355.3594 707.3631,355.6563 707.3631,355.9375 C707.3631,356.2188 707.5037,356.4688 707.7224,356.6406 C707.8787,356.75 708.0662,356.7813 708.4881,356.7813 L708.7381,356.7813 L708.7381,363.2969 L708.4881,363.2969 C708.0818,363.2969 707.9256,363.3125 707.7693,363.4219 C707.5193,363.5938 707.3631,363.8594 707.3631,364.1563 C707.3631,364.4219 707.5037,364.6719 707.7224,364.8281 C707.8631,364.9531 708.0974,365 708.4881,365 L716.4881,365 L716.4881,362.4219 C716.4881,361.9844 716.4568,361.8438 716.3787,361.6875 C716.2068,361.4375 715.9256,361.2813 715.6443,361.2813 C715.3787,361.2813 715.1131,361.3906 714.9412,361.6406 C714.8318,361.7969 714.8006,361.9375 714.8006,362.4219 L714.8006,363.2969 L710.4412,363.2969 L710.4412,360.875 Z " fill="#000000"/><text fill="#000000" font-family="sans-serif" font-size="14" lengthAdjust="spacing" textLength="74" x="732.1443" y="364.8467">DimToken</text><line style="stroke:#181818;stroke-width:0.5;" x1="662.8943" x2="842.8943" y1="376" y2="376"/><text fill="#000000" font-family="sans-serif" font-size="14" lengthAdjust="spacing" textLength="170" x="667.8943" y="392.9951">SurrogateKey : int &#171;PK&#187;</text><line style="stroke:#181818;stroke-width:1.0;" x1="662.8943" x2="842.8943" y1="400.2969" y2="400.2969"/><text fill="#000000" font-family="sans-serif" font-size="14" lengthAdjust="spacing" textLength="149" x="667.8943" y="417.292">Address : varchar(42)</text><text fill="#000000" font-family="sans-serif" font-size="14" lengthAdjust="spacing" textLength="148" x="667.8943" y="433.5889">Symbol : varchar(10)</text><text fill="#000000" font-family="sans-serif" font-size="14" lengthAdjust="spacing" textLength="135" x="667.8943" y="449.8857">Name : varchar(50)</text><text fill="#000000" font-family="sans-serif" font-size="14" lengthAdjust="spacing" textLength="121" x="667.8943" y="466.1826">Decimals : bigint</text><text fill="#000000" font-family="sans-serif" font-size="14" lengthAdjust="spacing" textLength="80" x="667.8943" y="482.4795">ERC20 : bit</text><text fill="#000000" font-family="sans-serif" font-size="14" lengthAdjust="spacing" textLength="89" x="667.8943" y="498.7764">ERC721 : bit</text></g><!--class FactTokenBlockSnapshot--><g id="elem_FactTokenBlockSnapshot"><rect codeLine="55" fill="#F1F1F1" height="113.1875" id="FactTokenBlockSnapshot" rx="2.5" ry="2.5" style="stroke:#181818;stroke-width:0.5;" width="216" x="564.8943" y="648.5"/><ellipse cx="579.8943" cy="664.5" fill="#ADD1B2" rx="11" ry="11" style="stroke:#181818;stroke-width:1.0;"/><path d="M578.6912,665.375 L580.1443,665.375 L580.1443,665.4844 C580.1443,665.8906 580.1756,666.0469 580.2537,666.2031 C580.4099,666.4531 580.6912,666.6094 580.9881,666.6094 C581.2381,666.6094 581.5037,666.4688 581.6599,666.25 C581.7849,666.0938 581.8162,665.9375 581.8162,665.4844 L581.8162,663.5625 C581.8162,663.4063 581.8162,663.3594 581.8006,663.2031 C581.7381,662.7344 581.4256,662.4219 580.9724,662.4219 C580.7224,662.4219 580.4568,662.5625 580.2849,662.7813 C580.1756,662.9531 580.1443,663.1094 580.1443,663.5625 L580.1443,663.6875 L578.6912,663.6875 L578.6912,661.2813 L582.6756,661.2813 L582.6756,662.1406 C582.6756,662.5469 582.7068,662.7188 582.7849,662.875 C582.9568,663.125 583.2381,663.2813 583.5193,663.2813 C583.7849,663.2813 584.0506,663.1406 584.2224,662.9219 C584.3318,662.75 584.3631,662.6094 584.3631,662.1406 L584.3631,659.5938 L576.7381,659.5938 C576.3006,659.5938 576.1756,659.6094 576.0193,659.7031 C575.7693,659.8594 575.6131,660.1563 575.6131,660.4375 C575.6131,660.7188 575.7537,660.9688 575.9724,661.1406 C576.1287,661.25 576.3162,661.2813 576.7381,661.2813 L576.9881,661.2813 L576.9881,667.7969 L576.7381,667.7969 C576.3318,667.7969 576.1756,667.8125 576.0193,667.9219 C575.7693,668.0938 575.6131,668.3594 575.6131,668.6563 C575.6131,668.9219 575.7537,669.1719 575.9724,669.3281 C576.1131,669.4531 576.3474,669.5 576.7381,669.5 L584.7381,669.5 L584.7381,666.9219 C584.7381,666.4844 584.7068,666.3438 584.6287,666.1875 C584.4568,665.9375 584.1756,665.7813 583.8943,665.7813 C583.6287,665.7813 583.3631,665.8906 583.1912,666.1406 C583.0818,666.2969 583.0506,666.4375 583.0506,666.9219 L583.0506,667.7969 L578.6912,667.7969 L578.6912,665.375 Z " fill="#000000"/><text fill="#000000" font-family="sans-serif" font-size="14" lengthAdjust="spacing" textLength="184" x="593.8943" y="669.3467">FactTokenBlockSnapshot</text><line style="stroke:#181818;stroke-width:0.5;" x1="565.8943" x2="779.8943" y1="680.5" y2="680.5"/><text fill="#000000" font-family="sans-serif" font-size="14" lengthAdjust="spacing" textLength="170" x="570.8943" y="697.4951">SurrogateKey : int &#171;PK&#187;</text><line style="stroke:#181818;stroke-width:1.0;" x1="565.8943" x2="779.8943" y1="704.7969" y2="704.7969"/><text fill="#000000" font-family="sans-serif" font-size="14" lengthAdjust="spacing" textLength="143" x="570.8943" y="721.792">TokenKey : int &#171;FK&#187;</text><text fill="#000000" font-family="sans-serif" font-size="14" lengthAdjust="spacing" textLength="138" x="570.8943" y="738.0889">BlockKey : int &#171;FK&#187;</text><text fill="#000000" font-family="sans-serif" font-size="14" lengthAdjust="spacing" textLength="202" x="570.8943" y="754.3857">TotalSupply : numeric(30, 0)</text></g><!--class FactWalletBlockSnapshot--><g id="elem_FactWalletBlockSnapshot"><rect codeLine="63" fill="#F1F1F1" height="129.4844" id="FactWalletBlockSnapshot" rx="2.5" ry="2.5" style="stroke:#181818;stroke-width:0.5;" width="217" x="13.3943" y="640.5"/><ellipse cx="28.3943" cy="656.5" fill="#ADD1B2" rx="11" ry="11" style="stroke:#181818;stroke-width:1.0;"/><path d="M27.1912,657.375 L28.6443,657.375 L28.6443,657.4844 C28.6443,657.8906 28.6756,658.0469 28.7537,658.2031 C28.9099,658.4531 29.1912,658.6094 29.4881,658.6094 C29.7381,658.6094 30.0037,658.4688 30.1599,658.25 C30.2849,658.0938 30.3162,657.9375 30.3162,657.4844 L30.3162,655.5625 C30.3162,655.4063 30.3162,655.3594 30.3006,655.2031 C30.2381,654.7344 29.9256,654.4219 29.4724,654.4219 C29.2224,654.4219 28.9568,654.5625 28.7849,654.7813 C28.6756,654.9531 28.6443,655.1094 28.6443,655.5625 L28.6443,655.6875 L27.1912,655.6875 L27.1912,653.2813 L31.1756,653.2813 L31.1756,654.1406 C31.1756,654.5469 31.2068,654.7188 31.2849,654.875 C31.4568,655.125 31.7381,655.2813 32.0193,655.2813 C32.2849,655.2813 32.5506,655.1406 32.7224,654.9219 C32.8318,654.75 32.8631,654.6094 32.8631,654.1406 L32.8631,651.5938 L25.2381,651.5938 C24.8006,651.5938 24.6756,651.6094 24.5193,651.7031 C24.2693,651.8594 24.1131,652.1563 24.1131,652.4375 C24.1131,652.7188 24.2537,652.9688 24.4724,653.1406 C24.6287,653.25 24.8162,653.2813 25.2381,653.2813 L25.4881,653.2813 L25.4881,659.7969 L25.2381,659.7969 C24.8318,659.7969 24.6756,659.8125 24.5193,659.9219 C24.2693,660.0938 24.1131,660.3594 24.1131,660.6563 C24.1131,660.9219 24.2537,661.1719 24.4724,661.3281 C24.6131,661.4531 24.8474,661.5 25.2381,661.5 L33.2381,661.5 L33.2381,658.9219 C33.2381,658.4844 33.2068,658.3438 33.1287,658.1875 C32.9568,657.9375 32.6756,657.7813 32.3943,657.7813 C32.1287,657.7813 31.8631,657.8906 31.6912,658.1406 C31.5818,658.2969 31.5506,658.4375 31.5506,658.9219 L31.5506,659.7969 L27.1912,659.7969 L27.1912,657.375 Z " fill="#000000"/><text fill="#000000" font-family="sans-serif" font-size="14" lengthAdjust="spacing" textLength="185" x="42.3943" y="661.3467">FactWalletBlockSnapshot</text><line style="stroke:#181818;stroke-width:0.5;" x1="14.3943" x2="229.3943" y1="672.5" y2="672.5"/><text fill="#000000" font-family="sans-serif" font-size="14" lengthAdjust="spacing" textLength="170" x="19.3943" y="689.4951">SurrogateKey : int &#171;PK&#187;</text><line style="stroke:#181818;stroke-width:1.0;" x1="14.3943" x2="229.3943" y1="696.7969" y2="696.7969"/><text fill="#000000" font-family="sans-serif" font-size="14" lengthAdjust="spacing" textLength="138" x="19.3943" y="713.792">BlockKey : int &#171;FK&#187;</text><text fill="#000000" font-family="sans-serif" font-size="14" lengthAdjust="spacing" textLength="144" x="19.3943" y="730.0889">WalletKey : int &#171;FK&#187;</text><text fill="#000000" font-family="sans-serif" font-size="14" lengthAdjust="spacing" textLength="112" x="19.3943" y="746.3857">Balance : bigint</text><text fill="#000000" font-family="sans-serif" font-size="14" lengthAdjust="spacing" textLength="160" x="19.3943" y="762.6826">TransactionCount : int</text></g><!--class DimWallet--><g id="elem_DimWallet"><rect codeLine="71" fill="#F1F1F1" height="80.5938" id="DimWallet" rx="2.5" ry="2.5" style="stroke:#181818;stroke-width:0.5;" width="182" x="38.8943" y="384.5"/><ellipse cx="88.1443" cy="400.5" fill="#ADD1B2" rx="11" ry="11" style="stroke:#181818;stroke-width:1.0;"/><path d="M86.9412,401.375 L88.3943,401.375 L88.3943,401.4844 C88.3943,401.8906 88.4256,402.0469 88.5037,402.2031 C88.6599,402.4531 88.9412,402.6094 89.2381,402.6094 C89.4881,402.6094 89.7537,402.4688 89.9099,402.25 C90.0349,402.0938 90.0662,401.9375 90.0662,401.4844 L90.0662,399.5625 C90.0662,399.4063 90.0662,399.3594 90.0506,399.2031 C89.9881,398.7344 89.6756,398.4219 89.2224,398.4219 C88.9724,398.4219 88.7068,398.5625 88.5349,398.7813 C88.4256,398.9531 88.3943,399.1094 88.3943,399.5625 L88.3943,399.6875 L86.9412,399.6875 L86.9412,397.2813 L90.9256,397.2813 L90.9256,398.1406 C90.9256,398.5469 90.9568,398.7188 91.0349,398.875 C91.2068,399.125 91.4881,399.2813 91.7693,399.2813 C92.0349,399.2813 92.3006,399.1406 92.4724,398.9219 C92.5818,398.75 92.6131,398.6094 92.6131,398.1406 L92.6131,395.5938 L84.9881,395.5938 C84.5506,395.5938 84.4256,395.6094 84.2693,395.7031 C84.0193,395.8594 83.8631,396.1563 83.8631,396.4375 C83.8631,396.7188 84.0037,396.9688 84.2224,397.1406 C84.3787,397.25 84.5662,397.2813 84.9881,397.2813 L85.2381,397.2813 L85.2381,403.7969 L84.9881,403.7969 C84.5818,403.7969 84.4256,403.8125 84.2693,403.9219 C84.0193,404.0938 83.8631,404.3594 83.8631,404.6563 C83.8631,404.9219 84.0037,405.1719 84.2224,405.3281 C84.3631,405.4531 84.5974,405.5 84.9881,405.5 L92.9881,405.5 L92.9881,402.9219 C92.9881,402.4844 92.9568,402.3438 92.8787,402.1875 C92.7068,401.9375 92.4256,401.7813 92.1443,401.7813 C91.8787,401.7813 91.6131,401.8906 91.4412,402.1406 C91.3318,402.2969 91.3006,402.4375 91.3006,402.9219 L91.3006,403.7969 L86.9412,403.7969 L86.9412,401.375 Z " fill="#000000"/><text fill="#000000" font-family="sans-serif" font-size="14" lengthAdjust="spacing" textLength="75" x="108.6443" y="405.3467">DimWallet</text><line style="stroke:#181818;stroke-width:0.5;" x1="39.8943" x2="219.8943" y1="416.5" y2="416.5"/><text fill="#000000" font-family="sans-serif" font-size="14" lengthAdjust="spacing" textLength="170" x="44.8943" y="433.4951">SurrogateKey : int &#171;PK&#187;</text><line style="stroke:#181818;stroke-width:1.0;" x1="39.8943" x2="219.8943" y1="440.7969" y2="440.7969"/><text fill="#000000" font-family="sans-serif" font-size="14" lengthAdjust="spacing" textLength="145" x="44.8943" y="457.792">Address: varchar(42)</text></g><!--link DimWallet to FactTransaction--><g id="link_DimWallet_FactTransaction"><path codeLine="76" d="M116.8853,465.617 C110.5496,492.979 107.8688,528.681 126.8943,553 C161.0343,596.638 198.0003,558.909 247.8943,583 C263.0793,590.332 263.2297,589.3004 277.7587,598.9934 " fill="none" id="DimWallet-to-FactTransaction" style="stroke:#181818;stroke-width:1.0;"/><line style="stroke:#181818;stroke-width:1.0;" x1="286.0774" x2="296.0622" y1="604.5432" y2="603.9918"/><line style="stroke:#181818;stroke-width:1.0;" x1="286.0774" x2="289.4024" y1="604.5432" y2="613.9742"/><line style="stroke:#181818;stroke-width:1.0;" x1="286.0774" x2="292.7323" y1="604.5432" y2="608.983"/><ellipse cx="281.0862" cy="601.2133" fill="none" rx="4" ry="4" style="stroke:#181818;stroke-width:1.0;"/><text fill="#000000" font-family="sans-serif" font-size="13" lengthAdjust="spacing" textLength="97" x="127.8943" y="549.0669">FromWalletKey</text></g><!--link DimWallet to FactTransaction--><g id="link_DimWallet_FactTransaction"><path codeLine="77" d="M169.0033,465.535 C201.3293,498.214 236.2335,533.4993 280.1985,577.9433 " fill="none" id="DimWallet-to-FactTransaction-1" style="stroke:#181818;stroke-width:1.0;"/><line style="stroke:#181818;stroke-width:1.0;" x1="287.2312" x2="297.1229" y1="585.0526" y2="586.5204"/><line style="stroke:#181818;stroke-width:1.0;" x1="287.2312" x2="288.5917" y1="585.0526" y2="594.9596"/><line style="stroke:#181818;stroke-width:1.0;" x1="287.2312" x2="292.8573" y1="585.0526" y2="590.74"/><ellipse cx="283.0116" cy="580.787" fill="none" rx="4" ry="4" style="stroke:#181818;stroke-width:1.0;"/><text fill="#000000" font-family="sans-serif" font-size="13" lengthAdjust="spacing" textLength="80" x="252.8943" y="549.0669">ToWalletKey</text></g><!--link DimTimestamp to DimBlock--><g id="link_DimTimestamp_DimBlock"><path codeLine="78" d="M489.8943,267.194 C489.8943,293.248 489.8943,301.918 489.8943,325.703 " fill="none" id="DimTimestamp-to-DimBlock" style="stroke:#181818;stroke-width:1.0;"/><line style="stroke:#181818;stroke-width:1.0;" x1="489.8943" x2="495.8943" y1="335.703" y2="343.703"/><line style="stroke:#181818;stroke-width:1.0;" x1="489.8943" x2="483.8943" y1="335.703" y2="343.703"/><line style="stroke:#181818;stroke-width:1.0;" x1="489.8943" x2="489.8943" y1="335.703" y2="343.703"/><ellipse cx="489.8943" cy="329.703" fill="none" rx="4" ry="4" style="stroke:#181818;stroke-width:1.0;"/><text fill="#000000" font-family="sans-serif" font-size="13" lengthAdjust="spacing" textLength="97" x="490.8943" y="310.0669">TimestampKey</text></g><!--link DimToken to FactTokenBlockSnapshot--><g id="link_DimToken_FactTokenBlockSnapshot"><path codeLine="79" d="M759.6593,506.338 C759.2623,521.985 757.6293,538.138 753.8943,553 C745.4483,586.613 737.2439,605.5105 720.6429,632.9015 " fill="none" id="DimToken-to-FactTokenBlockSnapshot" style="stroke:#181818;stroke-width:1.0;"/><line style="stroke:#181818;stroke-width:1.0;" x1="715.4598" x2="716.4445" y1="641.4535" y2="651.4049"/><line style="stroke:#181818;stroke-width:1.0;" x1="715.4598" x2="706.1822" y1="641.4535" y2="645.1851"/><line style="stroke:#181818;stroke-width:1.0;" x1="715.4598" x2="711.3133" y1="641.4535" y2="648.295"/><ellipse cx="718.5697" cy="636.3223" fill="none" rx="4" ry="4" style="stroke:#181818;stroke-width:1.0;"/><text fill="#000000" font-family="sans-serif" font-size="13" lengthAdjust="spacing" textLength="63" x="758.8943" y="549.0669">TokenKey</text></g><!--link DimBlock to FactTokenBlockSnapshot--><g id="link_DimBlock_FactTokenBlockSnapshot"><path codeLine="80" d="M542.5803,506.036 C572.5673,551.591 599.4852,592.4821 626.3272,633.2581 " fill="none" id="DimBlock-to-FactTokenBlockSnapshot" style="stroke:#181818;stroke-width:1.0;"/><line style="stroke:#181818;stroke-width:1.0;" x1="631.8256" x2="641.2359" y1="641.6108" y2="644.994"/><line style="stroke:#181818;stroke-width:1.0;" x1="631.8256" x2="631.2127" y1="641.6108" y2="651.592"/><line style="stroke:#181818;stroke-width:1.0;" x1="631.8256" x2="636.2243" y1="641.6108" y2="648.293"/><ellipse cx="628.5265" cy="636.5992" fill="none" rx="4" ry="4" style="stroke:#181818;stroke-width:1.0;"/><text fill="#000000" font-family="sans-serif" font-size="13" lengthAdjust="spacing" textLength="57" x="571.8943" y="549.0669">BlockKey</text></g><!--link DimBlock to FactWalletBlockSnapshot--><g id="link_DimBlock_FactWalletBlockSnapshot"><path codeLine="81" d="M404.7213,506.293 C384.9233,522.871 363.3403,539.402 341.8943,553 C314.3393,570.471 302.7933,566.084 274.8943,583 C247.3843,599.68 233.2399,609.352 208.6979,629.122 " fill="none" id="DimBlock-to-FactWalletBlockSnapshot" style="stroke:#181818;stroke-width:1.0;"/><line style="stroke:#181818;stroke-width:1.0;" x1="200.9103" x2="198.4443" y1="635.3954" y2="645.0865"/><line style="stroke:#181818;stroke-width:1.0;" x1="200.9103" x2="190.9163" y1="635.3954" y2="635.7415"/><line style="stroke:#181818;stroke-width:1.0;" x1="200.9103" x2="194.6803" y1="635.3954" y2="640.414"/><ellipse cx="205.5829" cy="631.6314" fill="none" rx="4" ry="4" style="stroke:#181818;stroke-width:1.0;"/><text fill="#000000" font-family="sans-serif" font-size="13" lengthAdjust="spacing" textLength="57" x="364.8943" y="549.0669">BlockKey</text></g><!--link DimWallet to FactWalletBlockSnapshot--><g id="link_DimWallet_FactWalletBlockSnapshot"><path codeLine="82" d="M75.2439,465.585 C54.0543,484.277 32.2004,508.528 20.8943,536 C6,572.192 13.3568,595.9316 38.6604,626.3466 " fill="none" id="DimWallet-to-FactWalletBlockSnapshot" style="stroke:#181818;stroke-width:1.0;"/><line style="stroke:#181818;stroke-width:1.0;" x1="45.056" x2="54.7849" y1="634.034" y2="636.3467"/><line style="stroke:#181818;stroke-width:1.0;" x1="45.056" x2="45.5599" y1="634.034" y2="644.0213"/><line style="stroke:#181818;stroke-width:1.0;" x1="45.056" x2="50.1724" y1="634.034" y2="640.184"/><ellipse cx="41.2187" cy="629.4216" fill="none" rx="4" ry="4" style="stroke:#181818;stroke-width:1.0;"/><text fill="#000000" font-family="sans-serif" font-size="13" lengthAdjust="spacing" textLength="64" x="21.8943" y="549.0669">WalletKey</text></g><!--link DimBlock to FactTransaction--><g id="link_DimBlock_FactTransaction"><path codeLine="83" d="M465.4233,506.036 C458.0903,530.017 455.1421,539.6575 447.1911,565.6635 " fill="none" id="DimBlock-to-FactTransaction" style="stroke:#181818;stroke-width:1.0;"/><line style="stroke:#181818;stroke-width:1.0;" x1="444.2673" x2="447.6661" y1="575.2266" y2="584.6313"/><line style="stroke:#181818;stroke-width:1.0;" x1="444.2673" x2="436.1905" y1="575.2266" y2="581.1227"/><line style="stroke:#181818;stroke-width:1.0;" x1="444.2673" x2="441.9283" y1="575.2266" y2="582.877"/><ellipse cx="446.0216" cy="569.4888" fill="none" rx="4" ry="4" style="stroke:#181818;stroke-width:1.0;"/><text fill="#000000" font-family="sans-serif" font-size="13" lengthAdjust="spacing" textLength="57" x="456.8943" y="549.0669">BlockKey</text></g><!--link DimToken to FactTransaction--><g id="link_DimToken_FactTransaction"><path codeLine="84" d="M691.9323,506.137 C675.8503,523.403 657.4673,540.268 637.8943,553 C602.1963,576.22 584.0173,562.133 546.8943,583 C536.8713,588.634 541.6287,584.6886 531.8827,591.5316 " fill="none" id="DimToken-to-FactTransaction" style="stroke:#181818;stroke-width:1.0;"/><line style="stroke:#181818;stroke-width:1.0;" x1="523.6986" x2="520.5991" y1="597.2779" y2="606.7855"/><line style="stroke:#181818;stroke-width:1.0;" x1="523.6986" x2="513.7035" y1="597.2779" y2="596.9645"/><line style="stroke:#181818;stroke-width:1.0;" x1="523.6986" x2="517.1513" y1="597.2779" y2="601.875"/><ellipse cx="528.6091" cy="593.8301" fill="none" rx="4" ry="4" style="stroke:#181818;stroke-width:1.0;"/><text fill="#000000" font-family="sans-serif" font-size="13" lengthAdjust="spacing" textLength="63" x="661.8943" y="549.0669">TokenKey</text></g><!--SRC=[dLJRJjj047ttLwpoH2GYXRIbBK98X916ea4fTa0yLOCp8gli9TfTLxLG_hrhhnElRn3roPuvStPdprnG66fIqfj2R285GjilbQ97tW92I9We9L_1u1scv89GOSZbvUBkwYeO339yp6IyyR5fXbbWgYH_0iRGjA6HV0_Re6W5oknceDSM_mCgNeCwEJ_lPm4_G2yrhYpmGbyjj_0j58snuGHQ3Nm4bk1jD6jnBX-iKoGSxK4dtqv7_GEq32TrQ1TWeUY4yeXor0RuzaCv2N62BWNzUs1LSfdD72Fxdy_B_p0i_w_dlnSUD86qD9uGDrNh7ZXwAdxFtpMNmgozcpApDV1N0igWAaEV4VRMBl1Lo9laQ0KEhs_hWVoepkh_f9oQUgKRBU7rqOrCH9Km1erJn0KgIosHweFo5ZroGgvNAuLQU_b-TWqKfln5Ciz_DipzDR6_EEy4Oyg1wKgojmytes7ksPjVHsU5xMMSZtQMSgvUA62hrz8SNv2kWUmS_aWQO66otRBK6uzFmrCoxDSJSulW_pBhJA1xkuo1WQYjWvQ6S3NtIkvEp39xj-15jQl5tWN-2OE1V6jPjnVMv-_Ctf4aRvKwYhTp7AkSm2pScwuYtZMpTqDBg-GNkJPmhEB43rdx4dMmMglVe3LLwEBLj6XcMLElUazJYeROXGR_0000]--></g></svg>