<?xml version="1.0" encoding="us-ascii" standalone="no"?><svg xmlns="http://www.w3.org/2000/svg" xmlns:xlink="http://www.w3.org/1999/xlink" contentStyleType="text/css" height="866px" preserveAspectRatio="none" style="width:809px;height:866px;background:#FFFFFF;" version="1.1" viewBox="0 0 809 866" width="809px" zoomAndPan="magnify"><defs/><g><!--class DimTimestamp--><g id="elem_DimTimestamp"><rect codeLine="4" fill="#F1F1F1" height="259.8594" id="DimTimestamp" rx="2.5" ry="2.5" style="stroke:#181818;stroke-width:0.5;" width="184" x="305" y="7"/><ellipse cx="338.45" cy="23" fill="#ADD1B2" rx="11" ry="11" style="stroke:#181818;stroke-width:1.0;"/><path d="M337.2469,23.875 L338.7,23.875 L338.7,23.9844 C338.7,24.3906 338.7313,24.5469 338.8094,24.7031 C338.9656,24.9531 339.2469,25.1094 339.5438,25.1094 C339.7938,25.1094 340.0594,24.9688 340.2156,24.75 C340.3406,24.5938 340.3719,24.4375 340.3719,23.9844 L340.3719,22.0625 C340.3719,21.9063 340.3719,21.8594 340.3563,21.7031 C340.2938,21.2344 339.9813,20.9219 339.5281,20.9219 C339.2781,20.9219 339.0125,21.0625 338.8406,21.2813 C338.7313,21.4531 338.7,21.6094 338.7,22.0625 L338.7,22.1875 L337.2469,22.1875 L337.2469,19.7813 L341.2313,19.7813 L341.2313,20.6406 C341.2313,21.0469 341.2625,21.2188 341.3406,21.375 C341.5125,21.625 341.7938,21.7813 342.075,21.7813 C342.3406,21.7813 342.6063,21.6406 342.7781,21.4219 C342.8875,21.25 342.9188,21.1094 342.9188,20.6406 L342.9188,18.0938 L335.2938,18.0938 C334.8563,18.0938 334.7313,18.1094 334.575,18.2031 C334.325,18.3594 334.1688,18.6563 334.1688,18.9375 C334.1688,19.2188 334.3094,19.4688 334.5281,19.6406 C334.6844,19.75 334.8719,19.7813 335.2938,19.7813 L335.5438,19.7813 L335.5438,26.2969 L335.2938,26.2969 C334.8875,26.2969 334.7313,26.3125 334.575,26.4219 C334.325,26.5938 334.1688,26.8594 334.1688,27.1563 C334.1688,27.4219 334.3094,27.6719 334.5281,27.8281 C334.6688,27.9531 334.9031,28 335.2938,28 L343.2938,28 L343.2938,25.4219 C343.2938,24.9844 343.2625,24.8438 343.1844,24.6875 C343.0125,24.4375 342.7313,24.2813 342.45,24.2813 C342.1844,24.2813 341.9188,24.3906 341.7469,24.6406 C341.6375,24.7969 341.6063,24.9375 341.6063,25.4219 L341.6063,26.2969 L337.2469,26.2969 L337.2469,23.875 Z " fill="#000000"/><text fill="#000000" font-family="sans-serif" font-size="14" lengthAdjust="spacing" textLength="111" x="356.55" y="27.8467">DimTimestamp</text><line style="stroke:#181818;stroke-width:0.5;" x1="306" x2="488" y1="39" y2="39"/><text fill="#000000" font-family="sans-serif" font-size="14" lengthAdjust="spacing" textLength="170" x="311" y="55.9951">SurrogateKey : int &#171;PK&#187;</text><line style="stroke:#181818;stroke-width:1.0;" x1="306" x2="488" y1="63.2969" y2="63.2969"/><text fill="#000000" font-family="sans-serif" font-size="14" lengthAdjust="spacing" textLength="145" x="311" y="80.292">UnixTimestamp : int</text><text fill="#000000" font-family="sans-serif" font-size="14" lengthAdjust="spacing" textLength="53" x="311" y="96.5889">HH : int</text><text fill="#000000" font-family="sans-serif" font-size="14" lengthAdjust="spacing" textLength="57" x="311" y="112.8857">MM : int</text><text fill="#000000" font-family="sans-serif" font-size="14" lengthAdjust="spacing" textLength="51" x="311" y="129.1826">SS : int</text><text fill="#000000" font-family="sans-serif" font-size="14" lengthAdjust="spacing" textLength="83" x="311" y="145.4795">AM_PM : int</text><text fill="#000000" font-family="sans-serif" font-size="14" lengthAdjust="spacing" textLength="60" x="311" y="161.7764">Day : int</text><text fill="#000000" font-family="sans-serif" font-size="14" lengthAdjust="spacing" textLength="74" x="311" y="178.0732">Week : int</text><text fill="#000000" font-family="sans-serif" font-size="14" lengthAdjust="spacing" textLength="167" x="311" y="194.3701">WeekName : varchar(9)</text><text fill="#000000" font-family="sans-serif" font-size="14" lengthAdjust="spacing" textLength="79" x="311" y="210.667">Month : int</text><text fill="#000000" font-family="sans-serif" font-size="14" lengthAdjust="spacing" textLength="172" x="311" y="226.9639">MonthName : varchar(9)</text><text fill="#000000" font-family="sans-serif" font-size="14" lengthAdjust="spacing" textLength="88" x="311" y="243.2607">Quarter : int</text><text fill="#000000" font-family="sans-serif" font-size="14" lengthAdjust="spacing" textLength="65" x="311" y="259.5576">Year : int</text></g><!--class DimBlock--><g id="elem_DimBlock"><rect codeLine="21" fill="#F1F1F1" height="162.0781" id="DimBlock" rx="2.5" ry="2.5" style="stroke:#181818;stroke-width:0.5;" width="192" x="301" y="344"/><ellipse cx="358.25" cy="360" fill="#ADD1B2" rx="11" ry="11" style="stroke:#181818;stroke-width:1.0;"/><path d="M357.0469,360.875 L358.5,360.875 L358.5,360.9844 C358.5,361.3906 358.5313,361.5469 358.6094,361.7031 C358.7656,361.9531 359.0469,362.1094 359.3438,362.1094 C359.5938,362.1094 359.8594,361.9688 360.0156,361.75 C360.1406,361.5938 360.1719,361.4375 360.1719,360.9844 L360.1719,359.0625 C360.1719,358.9063 360.1719,358.8594 360.1563,358.7031 C360.0938,358.2344 359.7813,357.9219 359.3281,357.9219 C359.0781,357.9219 358.8125,358.0625 358.6406,358.2813 C358.5313,358.4531 358.5,358.6094 358.5,359.0625 L358.5,359.1875 L357.0469,359.1875 L357.0469,356.7813 L361.0313,356.7813 L361.0313,357.6406 C361.0313,358.0469 361.0625,358.2188 361.1406,358.375 C361.3125,358.625 361.5938,358.7813 361.875,358.7813 C362.1406,358.7813 362.4063,358.6406 362.5781,358.4219 C362.6875,358.25 362.7188,358.1094 362.7188,357.6406 L362.7188,355.0938 L355.0938,355.0938 C354.6563,355.0938 354.5313,355.1094 354.375,355.2031 C354.125,355.3594 353.9688,355.6563 353.9688,355.9375 C353.9688,356.2188 354.1094,356.4688 354.3281,356.6406 C354.4844,356.75 354.6719,356.7813 355.0938,356.7813 L355.3438,356.7813 L355.3438,363.2969 L355.0938,363.2969 C354.6875,363.2969 354.5313,363.3125 354.375,363.4219 C354.125,363.5938 353.9688,363.8594 353.9688,364.1563 C353.9688,364.4219 354.1094,364.6719 354.3281,364.8281 C354.4688,364.9531 354.7031,365 355.0938,365 L363.0938,365 L363.0938,362.4219 C363.0938,361.9844 363.0625,361.8438 362.9844,361.6875 C362.8125,361.4375 362.5313,361.2813 362.25,361.2813 C361.9844,361.2813 361.7188,361.3906 361.5469,361.6406 C361.4375,361.7969 361.4063,361.9375 361.4063,362.4219 L361.4063,363.2969 L357.0469,363.2969 L357.0469,360.875 Z " fill="#000000"/><text fill="#000000" font-family="sans-serif" font-size="14" lengthAdjust="spacing" textLength="69" x="378.75" y="364.8467">DimBlock</text><line style="stroke:#181818;stroke-width:0.5;" x1="302" x2="492" y1="376" y2="376"/><text fill="#000000" font-family="sans-serif" font-size="14" lengthAdjust="spacing" textLength="170" x="307" y="392.9951">SurrogateKey : int &#171;PK&#187;</text><line style="stroke:#181818;stroke-width:1.0;" x1="302" x2="492" y1="400.2969" y2="400.2969"/><text fill="#000000" font-family="sans-serif" font-size="14" lengthAdjust="spacing" textLength="180" x="307" y="417.292">TimestampKey : int &#171;FK&#187;</text><text fill="#000000" font-family="sans-serif" font-size="14" lengthAdjust="spacing" textLength="168" x="307" y="433.5889">BlockHash : varchar(66)</text><text fill="#000000" font-family="sans-serif" font-size="14" lengthAdjust="spacing" textLength="96" x="307" y="449.8857">GasLimit : int</text><text fill="#000000" font-family="sans-serif" font-size="14" lengthAdjust="spacing" textLength="93" x="307" y="466.1826">GasUsed : int</text><text fill="#000000" font-family="sans-serif" font-size="14" lengthAdjust="spacing" textLength="160" x="307" y="482.4795">TransactionCount : int</text><text fill="#000000" font-family="sans-serif" font-size="14" lengthAdjust="spacing" textLength="143" x="307" y="498.7764">BaseFeePerGas : int</text></g><!--class DimToken--><g id="elem_DimToken"><rect codeLine="32" fill="#F1F1F1" height="162.0781" id="DimToken" rx="2.5" ry="2.5" style="stroke:#181818;stroke-width:0.5;" width="182" x="41" y="344"/><ellipse cx="90.75" cy="360" fill="#ADD1B2" rx="11" ry="11" style="stroke:#181818;stroke-width:1.0;"/><path d="M89.5469,360.875 L91,360.875 L91,360.9844 C91,361.3906 91.0313,361.5469 91.1094,361.7031 C91.2656,361.9531 91.5469,362.1094 91.8438,362.1094 C92.0938,362.1094 92.3594,361.9688 92.5156,361.75 C92.6406,361.5938 92.6719,361.4375 92.6719,360.9844 L92.6719,359.0625 C92.6719,358.9063 92.6719,358.8594 92.6563,358.7031 C92.5938,358.2344 92.2813,357.9219 91.8281,357.9219 C91.5781,357.9219 91.3125,358.0625 91.1406,358.2813 C91.0313,358.4531 91,358.6094 91,359.0625 L91,359.1875 L89.5469,359.1875 L89.5469,356.7813 L93.5313,356.7813 L93.5313,357.6406 C93.5313,358.0469 93.5625,358.2188 93.6406,358.375 C93.8125,358.625 94.0938,358.7813 94.375,358.7813 C94.6406,358.7813 94.9063,358.6406 95.0781,358.4219 C95.1875,358.25 95.2188,358.1094 95.2188,357.6406 L95.2188,355.0938 L87.5938,355.0938 C87.1563,355.0938 87.0313,355.1094 86.875,355.2031 C86.625,355.3594 86.4688,355.6563 86.4688,355.9375 C86.4688,356.2188 86.6094,356.4688 86.8281,356.6406 C86.9844,356.75 87.1719,356.7813 87.5938,356.7813 L87.8438,356.7813 L87.8438,363.2969 L87.5938,363.2969 C87.1875,363.2969 87.0313,363.3125 86.875,363.4219 C86.625,363.5938 86.4688,363.8594 86.4688,364.1563 C86.4688,364.4219 86.6094,364.6719 86.8281,364.8281 C86.9688,364.9531 87.2031,365 87.5938,365 L95.5938,365 L95.5938,362.4219 C95.5938,361.9844 95.5625,361.8438 95.4844,361.6875 C95.3125,361.4375 95.0313,361.2813 94.75,361.2813 C94.4844,361.2813 94.2188,361.3906 94.0469,361.6406 C93.9375,361.7969 93.9063,361.9375 93.9063,362.4219 L93.9063,363.2969 L89.5469,363.2969 L89.5469,360.875 Z " fill="#000000"/><text fill="#000000" font-family="sans-serif" font-size="14" lengthAdjust="spacing" textLength="74" x="111.25" y="364.8467">DimToken</text><line style="stroke:#181818;stroke-width:0.5;" x1="42" x2="222" y1="376" y2="376"/><text fill="#000000" font-family="sans-serif" font-size="14" lengthAdjust="spacing" textLength="170" x="47" y="392.9951">SurrogateKey : int &#171;PK&#187;</text><line style="stroke:#181818;stroke-width:1.0;" x1="42" x2="222" y1="400.2969" y2="400.2969"/><text fill="#000000" font-family="sans-serif" font-size="14" lengthAdjust="spacing" textLength="149" x="47" y="417.292">Address : varchar(42)</text><text fill="#000000" font-family="sans-serif" font-size="14" lengthAdjust="spacing" textLength="148" x="47" y="433.5889">Symbol : varchar(10)</text><text fill="#000000" font-family="sans-serif" font-size="14" lengthAdjust="spacing" textLength="135" x="47" y="449.8857">Name : varchar(50)</text><text fill="#000000" font-family="sans-serif" font-size="14" lengthAdjust="spacing" textLength="98" x="47" y="466.1826">Decimals : int</text><text fill="#000000" font-family="sans-serif" font-size="14" lengthAdjust="spacing" textLength="80" x="47" y="482.4795">ERC20 : bit</text><text fill="#000000" font-family="sans-serif" font-size="14" lengthAdjust="spacing" textLength="89" x="47" y="498.7764">ERC721 : bit</text></g><!--class DimWallet--><g id="elem_DimWallet"><rect codeLine="43" fill="#F1F1F1" height="80.5938" id="DimWallet" rx="2.5" ry="2.5" style="stroke:#181818;stroke-width:0.5;" width="182" x="569" y="384.5"/><ellipse cx="618.25" cy="400.5" fill="#ADD1B2" rx="11" ry="11" style="stroke:#181818;stroke-width:1.0;"/><path d="M617.0469,401.375 L618.5,401.375 L618.5,401.4844 C618.5,401.8906 618.5313,402.0469 618.6094,402.2031 C618.7656,402.4531 619.0469,402.6094 619.3438,402.6094 C619.5938,402.6094 619.8594,402.4688 620.0156,402.25 C620.1406,402.0938 620.1719,401.9375 620.1719,401.4844 L620.1719,399.5625 C620.1719,399.4063 620.1719,399.3594 620.1563,399.2031 C620.0938,398.7344 619.7813,398.4219 619.3281,398.4219 C619.0781,398.4219 618.8125,398.5625 618.6406,398.7813 C618.5313,398.9531 618.5,399.1094 618.5,399.5625 L618.5,399.6875 L617.0469,399.6875 L617.0469,397.2813 L621.0313,397.2813 L621.0313,398.1406 C621.0313,398.5469 621.0625,398.7188 621.1406,398.875 C621.3125,399.125 621.5938,399.2813 621.875,399.2813 C622.1406,399.2813 622.4063,399.1406 622.5781,398.9219 C622.6875,398.75 622.7188,398.6094 622.7188,398.1406 L622.7188,395.5938 L615.0938,395.5938 C614.6563,395.5938 614.5313,395.6094 614.375,395.7031 C614.125,395.8594 613.9688,396.1563 613.9688,396.4375 C613.9688,396.7188 614.1094,396.9688 614.3281,397.1406 C614.4844,397.25 614.6719,397.2813 615.0938,397.2813 L615.3438,397.2813 L615.3438,403.7969 L615.0938,403.7969 C614.6875,403.7969 614.5313,403.8125 614.375,403.9219 C614.125,404.0938 613.9688,404.3594 613.9688,404.6563 C613.9688,404.9219 614.1094,405.1719 614.3281,405.3281 C614.4688,405.4531 614.7031,405.5 615.0938,405.5 L623.0938,405.5 L623.0938,402.9219 C623.0938,402.4844 623.0625,402.3438 622.9844,402.1875 C622.8125,401.9375 622.5313,401.7813 622.25,401.7813 C621.9844,401.7813 621.7188,401.8906 621.5469,402.1406 C621.4375,402.2969 621.4063,402.4375 621.4063,402.9219 L621.4063,403.7969 L617.0469,403.7969 L617.0469,401.375 Z " fill="#000000"/><text fill="#000000" font-family="sans-serif" font-size="14" lengthAdjust="spacing" textLength="75" x="638.75" y="405.3467">DimWallet</text><line style="stroke:#181818;stroke-width:0.5;" x1="570" x2="750" y1="416.5" y2="416.5"/><text fill="#000000" font-family="sans-serif" font-size="14" lengthAdjust="spacing" textLength="170" x="575" y="433.4951">SurrogateKey : int &#171;PK&#187;</text><line style="stroke:#181818;stroke-width:1.0;" x1="570" x2="750" y1="440.7969" y2="440.7969"/><text fill="#000000" font-family="sans-serif" font-size="14" lengthAdjust="spacing" textLength="149" x="575" y="457.792">Address : varchar(42)</text></g><!--class FactTokenBlockSnapshot--><g id="elem_FactTokenBlockSnapshot"><rect codeLine="49" fill="#F1F1F1" height="113.1875" id="FactTokenBlockSnapshot" rx="2.5" ry="2.5" style="stroke:#181818;stroke-width:0.5;" width="216" x="7" y="664.5"/><ellipse cx="22" cy="680.5" fill="#ADD1B2" rx="11" ry="11" style="stroke:#181818;stroke-width:1.0;"/><path d="M20.7969,681.375 L22.25,681.375 L22.25,681.4844 C22.25,681.8906 22.2813,682.0469 22.3594,682.2031 C22.5156,682.4531 22.7969,682.6094 23.0938,682.6094 C23.3438,682.6094 23.6094,682.4688 23.7656,682.25 C23.8906,682.0938 23.9219,681.9375 23.9219,681.4844 L23.9219,679.5625 C23.9219,679.4063 23.9219,679.3594 23.9063,679.2031 C23.8438,678.7344 23.5313,678.4219 23.0781,678.4219 C22.8281,678.4219 22.5625,678.5625 22.3906,678.7813 C22.2813,678.9531 22.25,679.1094 22.25,679.5625 L22.25,679.6875 L20.7969,679.6875 L20.7969,677.2813 L24.7813,677.2813 L24.7813,678.1406 C24.7813,678.5469 24.8125,678.7188 24.8906,678.875 C25.0625,679.125 25.3438,679.2813 25.625,679.2813 C25.8906,679.2813 26.1563,679.1406 26.3281,678.9219 C26.4375,678.75 26.4688,678.6094 26.4688,678.1406 L26.4688,675.5938 L18.8438,675.5938 C18.4063,675.5938 18.2813,675.6094 18.125,675.7031 C17.875,675.8594 17.7188,676.1563 17.7188,676.4375 C17.7188,676.7188 17.8594,676.9688 18.0781,677.1406 C18.2344,677.25 18.4219,677.2813 18.8438,677.2813 L19.0938,677.2813 L19.0938,683.7969 L18.8438,683.7969 C18.4375,683.7969 18.2813,683.8125 18.125,683.9219 C17.875,684.0938 17.7188,684.3594 17.7188,684.6563 C17.7188,684.9219 17.8594,685.1719 18.0781,685.3281 C18.2188,685.4531 18.4531,685.5 18.8438,685.5 L26.8438,685.5 L26.8438,682.9219 C26.8438,682.4844 26.8125,682.3438 26.7344,682.1875 C26.5625,681.9375 26.2813,681.7813 26,681.7813 C25.7344,681.7813 25.4688,681.8906 25.2969,682.1406 C25.1875,682.2969 25.1563,682.4375 25.1563,682.9219 L25.1563,683.7969 L20.7969,683.7969 L20.7969,681.375 Z " fill="#000000"/><text fill="#000000" font-family="sans-serif" font-size="14" lengthAdjust="spacing" textLength="184" x="36" y="685.3467">FactTokenBlockSnapshot</text><line style="stroke:#181818;stroke-width:0.5;" x1="8" x2="222" y1="696.5" y2="696.5"/><text fill="#000000" font-family="sans-serif" font-size="14" lengthAdjust="spacing" textLength="170" x="13" y="713.4951">SurrogateKey : int &#171;PK&#187;</text><line style="stroke:#181818;stroke-width:1.0;" x1="8" x2="222" y1="720.7969" y2="720.7969"/><text fill="#000000" font-family="sans-serif" font-size="14" lengthAdjust="spacing" textLength="143" x="13" y="737.792">TokenKey : int &#171;FK&#187;</text><text fill="#000000" font-family="sans-serif" font-size="14" lengthAdjust="spacing" textLength="138" x="13" y="754.0889">BlockKey : int &#171;FK&#187;</text><text fill="#000000" font-family="sans-serif" font-size="14" lengthAdjust="spacing" textLength="198" x="13" y="770.3857">TotalSupply : numeric(30,0)</text></g><!--class FactWalletBlockSnapshot--><g id="elem_FactWalletBlockSnapshot"><rect codeLine="57" fill="#F1F1F1" height="129.4844" id="FactWalletBlockSnapshot" rx="2.5" ry="2.5" style="stroke:#181818;stroke-width:0.5;" width="240" x="562" y="656.5"/><ellipse cx="587.35" cy="672.5" fill="#ADD1B2" rx="11" ry="11" style="stroke:#181818;stroke-width:1.0;"/><path d="M586.1469,673.375 L587.6,673.375 L587.6,673.4844 C587.6,673.8906 587.6313,674.0469 587.7094,674.2031 C587.8656,674.4531 588.1469,674.6094 588.4438,674.6094 C588.6938,674.6094 588.9594,674.4688 589.1156,674.25 C589.2406,674.0938 589.2719,673.9375 589.2719,673.4844 L589.2719,671.5625 C589.2719,671.4063 589.2719,671.3594 589.2563,671.2031 C589.1938,670.7344 588.8813,670.4219 588.4281,670.4219 C588.1781,670.4219 587.9125,670.5625 587.7406,670.7813 C587.6313,670.9531 587.6,671.1094 587.6,671.5625 L587.6,671.6875 L586.1469,671.6875 L586.1469,669.2813 L590.1313,669.2813 L590.1313,670.1406 C590.1313,670.5469 590.1625,670.7188 590.2406,670.875 C590.4125,671.125 590.6938,671.2813 590.975,671.2813 C591.2406,671.2813 591.5063,671.1406 591.6781,670.9219 C591.7875,670.75 591.8188,670.6094 591.8188,670.1406 L591.8188,667.5938 L584.1938,667.5938 C583.7563,667.5938 583.6313,667.6094 583.475,667.7031 C583.225,667.8594 583.0688,668.1563 583.0688,668.4375 C583.0688,668.7188 583.2094,668.9688 583.4281,669.1406 C583.5844,669.25 583.7719,669.2813 584.1938,669.2813 L584.4438,669.2813 L584.4438,675.7969 L584.1938,675.7969 C583.7875,675.7969 583.6313,675.8125 583.475,675.9219 C583.225,676.0938 583.0688,676.3594 583.0688,676.6563 C583.0688,676.9219 583.2094,677.1719 583.4281,677.3281 C583.5688,677.4531 583.8031,677.5 584.1938,677.5 L592.1938,677.5 L592.1938,674.9219 C592.1938,674.4844 592.1625,674.3438 592.0844,674.1875 C591.9125,673.9375 591.6313,673.7813 591.35,673.7813 C591.0844,673.7813 590.8188,673.8906 590.6469,674.1406 C590.5375,674.2969 590.5063,674.4375 590.5063,674.9219 L590.5063,675.7969 L586.1469,675.7969 L586.1469,673.375 Z " fill="#000000"/><text fill="#000000" font-family="sans-serif" font-size="14" lengthAdjust="spacing" textLength="185" x="603.65" y="677.3467">FactWalletBlockSnapshot</text><line style="stroke:#181818;stroke-width:0.5;" x1="563" x2="801" y1="688.5" y2="688.5"/><text fill="#000000" font-family="sans-serif" font-size="14" lengthAdjust="spacing" textLength="170" x="568" y="705.4951">SurrogateKey : int &#171;PK&#187;</text><line style="stroke:#181818;stroke-width:1.0;" x1="563" x2="801" y1="712.7969" y2="712.7969"/><text fill="#000000" font-family="sans-serif" font-size="14" lengthAdjust="spacing" textLength="144" x="568" y="729.792">WalletKey : int &#171;FK&#187;</text><text fill="#000000" font-family="sans-serif" font-size="14" lengthAdjust="spacing" textLength="138" x="568" y="746.0889">BlockKey : int &#171;FK&#187;</text><text fill="#000000" font-family="sans-serif" font-size="14" lengthAdjust="spacing" textLength="167" x="568" y="762.3857">Balance : numeric(12,6)</text><text fill="#000000" font-family="sans-serif" font-size="14" lengthAdjust="spacing" textLength="228" x="568" y="778.6826">TransactionCount : int default 0</text></g><!--class FactTransaction--><g id="elem_FactTransaction"><rect codeLine="66" fill="#F1F1F1" height="276.1563" id="FactTransaction" rx="2.5" ry="2.5" style="stroke:#181818;stroke-width:0.5;" width="224" x="285" y="583"/><ellipse cx="335.25" cy="599" fill="#ADD1B2" rx="11" ry="11" style="stroke:#181818;stroke-width:1.0;"/><path d="M334.0469,599.875 L335.5,599.875 L335.5,599.9844 C335.5,600.3906 335.5313,600.5469 335.6094,600.7031 C335.7656,600.9531 336.0469,601.1094 336.3438,601.1094 C336.5938,601.1094 336.8594,600.9688 337.0156,600.75 C337.1406,600.5938 337.1719,600.4375 337.1719,599.9844 L337.1719,598.0625 C337.1719,597.9063 337.1719,597.8594 337.1563,597.7031 C337.0938,597.2344 336.7813,596.9219 336.3281,596.9219 C336.0781,596.9219 335.8125,597.0625 335.6406,597.2813 C335.5313,597.4531 335.5,597.6094 335.5,598.0625 L335.5,598.1875 L334.0469,598.1875 L334.0469,595.7813 L338.0313,595.7813 L338.0313,596.6406 C338.0313,597.0469 338.0625,597.2188 338.1406,597.375 C338.3125,597.625 338.5938,597.7813 338.875,597.7813 C339.1406,597.7813 339.4063,597.6406 339.5781,597.4219 C339.6875,597.25 339.7188,597.1094 339.7188,596.6406 L339.7188,594.0938 L332.0938,594.0938 C331.6563,594.0938 331.5313,594.1094 331.375,594.2031 C331.125,594.3594 330.9688,594.6563 330.9688,594.9375 C330.9688,595.2188 331.1094,595.4688 331.3281,595.6406 C331.4844,595.75 331.6719,595.7813 332.0938,595.7813 L332.3438,595.7813 L332.3438,602.2969 L332.0938,602.2969 C331.6875,602.2969 331.5313,602.3125 331.375,602.4219 C331.125,602.5938 330.9688,602.8594 330.9688,603.1563 C330.9688,603.4219 331.1094,603.6719 331.3281,603.8281 C331.4688,603.9531 331.7031,604 332.0938,604 L340.0938,604 L340.0938,601.4219 C340.0938,600.9844 340.0625,600.8438 339.9844,600.6875 C339.8125,600.4375 339.5313,600.2813 339.25,600.2813 C338.9844,600.2813 338.7188,600.3906 338.5469,600.6406 C338.4375,600.7969 338.4063,600.9375 338.4063,601.4219 L338.4063,602.2969 L334.0469,602.2969 L334.0469,599.875 Z " fill="#000000"/><text fill="#000000" font-family="sans-serif" font-size="14" lengthAdjust="spacing" textLength="115" x="355.75" y="603.8467">FactTransaction</text><line style="stroke:#181818;stroke-width:0.5;" x1="286" x2="508" y1="615" y2="615"/><text fill="#000000" font-family="sans-serif" font-size="14" lengthAdjust="spacing" textLength="170" x="291" y="631.9951">SurrogateKey : int &#171;PK&#187;</text><line style="stroke:#181818;stroke-width:1.0;" x1="286" x2="508" y1="639.2969" y2="639.2969"/><text fill="#000000" font-family="sans-serif" font-size="14" lengthAdjust="spacing" textLength="212" x="291" y="656.292">TransactionHash : varchar(66)</text><text fill="#000000" font-family="sans-serif" font-size="14" lengthAdjust="spacing" textLength="138" x="291" y="672.5889">BlockKey : int &#171;FK&#187;</text><text fill="#000000" font-family="sans-serif" font-size="14" lengthAdjust="spacing" textLength="181" x="291" y="688.8857">FromWalletKey : int &#171;FK&#187;</text><text fill="#000000" font-family="sans-serif" font-size="14" lengthAdjust="spacing" textLength="162" x="291" y="705.1826">ToWalletKey : int &#171;FK&#187;</text><text fill="#000000" font-family="sans-serif" font-size="14" lengthAdjust="spacing" textLength="143" x="291" y="721.4795">TokenKey : int &#171;FK&#187;</text><text fill="#000000" font-family="sans-serif" font-size="14" lengthAdjust="spacing" textLength="93" x="291" y="737.7764">GasUsed : int</text><text fill="#000000" font-family="sans-serif" font-size="14" lengthAdjust="spacing" textLength="210" x="291" y="754.0732">GasPriceETH : numeric(30,18)</text><text fill="#000000" font-family="sans-serif" font-size="14" lengthAdjust="spacing" textLength="201" x="291" y="770.3701">GasPriceEUR : numeric(12,6)</text><text fill="#000000" font-family="sans-serif" font-size="14" lengthAdjust="spacing" textLength="202" x="291" y="786.667">GasPriceUSD : numeric(12,6)</text><text fill="#000000" font-family="sans-serif" font-size="14" lengthAdjust="spacing" textLength="89" x="291" y="802.9639">GasPaid : int</text><text fill="#000000" font-family="sans-serif" font-size="14" lengthAdjust="spacing" textLength="178" x="291" y="819.2607">ValueETH : numeric(12,6)</text><text fill="#000000" font-family="sans-serif" font-size="14" lengthAdjust="spacing" textLength="168" x="291" y="835.5576">ValueEUR : numeric(8,2)</text><text fill="#000000" font-family="sans-serif" font-size="14" lengthAdjust="spacing" textLength="169" x="291" y="851.8545">ValueUSD : numeric(8,2)</text></g><!--link DimTimestamp to DimBlock--><g id="link_DimTimestamp_DimBlock"><path codeLine="84" d="M397,267.194 C397,293.248 397,301.918 397,325.703 " fill="none" id="DimTimestamp-to-DimBlock" style="stroke:#181818;stroke-width:1.0;"/><line style="stroke:#181818;stroke-width:1.0;" x1="397" x2="403" y1="335.703" y2="343.703"/><line style="stroke:#181818;stroke-width:1.0;" x1="397" x2="391" y1="335.703" y2="343.703"/><line style="stroke:#181818;stroke-width:1.0;" x1="397" x2="397" y1="335.703" y2="343.703"/><ellipse cx="397" cy="329.703" fill="none" rx="4" ry="4" style="stroke:#181818;stroke-width:1.0;"/><text fill="#000000" font-family="sans-serif" font-size="13" lengthAdjust="spacing" textLength="97" x="398" y="310.0669">TimestampKey</text></g><!--link DimToken to FactTokenBlockSnapshot--><g id="link_DimToken_FactTokenBlockSnapshot"><path codeLine="85" d="M93.4025,506.203 C89.9612,516.056 87.0198,526.132 85,536 C76.238,578.807 80.1843,610.3079 90.4813,646.9019 " fill="none" id="DimToken-to-FactTokenBlockSnapshot" style="stroke:#181818;stroke-width:1.0;"/><line style="stroke:#181818;stroke-width:1.0;" x1="93.19" x2="101.1326" y1="656.5281" y2="662.6038"/><line style="stroke:#181818;stroke-width:1.0;" x1="93.19" x2="89.5812" y1="656.5281" y2="665.8542"/><line style="stroke:#181818;stroke-width:1.0;" x1="93.19" x2="95.3569" y1="656.5281" y2="664.229"/><ellipse cx="91.5648" cy="650.7524" fill="none" rx="4" ry="4" style="stroke:#181818;stroke-width:1.0;"/><text fill="#000000" font-family="sans-serif" font-size="13" lengthAdjust="spacing" textLength="63" x="86" y="549.0669">TokenKey</text></g><!--link DimBlock to FactTokenBlockSnapshot--><g id="link_DimBlock_FactTokenBlockSnapshot"><path codeLine="86" d="M319.942,506.337 C271.835,556.491 223.5881,606.7907 180.7711,651.4297 " fill="none" id="DimBlock-to-FactTokenBlockSnapshot" style="stroke:#181818;stroke-width:1.0;"/><line style="stroke:#181818;stroke-width:1.0;" x1="173.8488" x2="172.6411" y1="658.6465" y2="668.5734"/><line style="stroke:#181818;stroke-width:1.0;" x1="173.8488" x2="163.9809" y1="658.6465" y2="660.2666"/><line style="stroke:#181818;stroke-width:1.0;" x1="173.8488" x2="168.311" y1="658.6465" y2="664.42"/><ellipse cx="178.0022" cy="654.3165" fill="none" rx="4" ry="4" style="stroke:#181818;stroke-width:1.0;"/><text fill="#000000" font-family="sans-serif" font-size="13" lengthAdjust="spacing" textLength="57" x="291" y="549.0669">BlockKey</text></g><!--link DimBlock to FactWalletBlockSnapshot--><g id="link_DimBlock_FactWalletBlockSnapshot"><path codeLine="87" d="M449.979,506.257 C462.03,522.395 475.334,538.757 489,553 C503.897,568.527 510.488,569.203 527,583 C555.111,606.489 571.9816,621.0426 598.2836,644.4496 " fill="none" id="DimBlock-to-FactWalletBlockSnapshot" style="stroke:#181818;stroke-width:1.0;"/><line style="stroke:#181818;stroke-width:1.0;" x1="605.7538" x2="615.7188" y1="651.0976" y2="651.9339"/><line style="stroke:#181818;stroke-width:1.0;" x1="605.7538" x2="607.7412" y1="651.0976" y2="660.8981"/><line style="stroke:#181818;stroke-width:1.0;" x1="605.7538" x2="611.73" y1="651.0976" y2="656.416"/><ellipse cx="601.2717" cy="647.1088" fill="none" rx="4" ry="4" style="stroke:#181818;stroke-width:1.0;"/><text fill="#000000" font-family="sans-serif" font-size="13" lengthAdjust="spacing" textLength="57" x="490" y="549.0669">BlockKey</text></g><!--link DimWallet to FactWalletBlockSnapshot--><g id="link_DimWallet_FactWalletBlockSnapshot"><path codeLine="88" d="M662.967,465.65 C666.626,514.552 671.5511,580.3552 675.8881,638.3242 " fill="none" id="DimWallet-to-FactWalletBlockSnapshot" style="stroke:#181818;stroke-width:1.0;"/><line style="stroke:#181818;stroke-width:1.0;" x1="676.6341" x2="683.2143" y1="648.2963" y2="655.8264"/><line style="stroke:#181818;stroke-width:1.0;" x1="676.6341" x2="671.2477" y1="648.2963" y2="656.7216"/><line style="stroke:#181818;stroke-width:1.0;" x1="676.6341" x2="677.231" y1="648.2963" y2="656.274"/><ellipse cx="676.1865" cy="642.313" fill="none" rx="4" ry="4" style="stroke:#181818;stroke-width:1.0;"/><text fill="#000000" font-family="sans-serif" font-size="13" lengthAdjust="spacing" textLength="64" x="670" y="549.0669">WalletKey</text></g><!--link DimBlock to FactTransaction--><g id="link_DimBlock_FactTransaction"><path codeLine="89" d="M394.558,506.199 C394.328,516.232 394.132,526.353 394,536 C393.793,551.174 393.6589,549.0523 393.7529,564.8503 " fill="none" id="DimBlock-to-FactTransaction" style="stroke:#181818;stroke-width:1.0;"/><line style="stroke:#181818;stroke-width:1.0;" x1="393.8124" x2="399.8599" y1="574.8501" y2="582.8143"/><line style="stroke:#181818;stroke-width:1.0;" x1="393.8124" x2="387.8601" y1="574.8501" y2="582.8857"/><line style="stroke:#181818;stroke-width:1.0;" x1="393.8124" x2="393.86" y1="574.8501" y2="582.85"/><ellipse cx="393.7767" cy="568.8502" fill="none" rx="4" ry="4" style="stroke:#181818;stroke-width:1.0;"/><text fill="#000000" font-family="sans-serif" font-size="13" lengthAdjust="spacing" textLength="57" x="395" y="549.0669">BlockKey</text></g><!--link DimToken to FactTransaction--><g id="link_DimToken_FactTransaction"><path codeLine="90" d="M159.652,506.027 C167.757,522.713 177.804,539.355 190,553 C207.27,572.322 219.044,567.754 240,583 C254.919,593.854 256.2433,594.3614 271.0293,606.5664 " fill="none" id="DimToken-to-FactTransaction" style="stroke:#181818;stroke-width:1.0;"/><line style="stroke:#181818;stroke-width:1.0;" x1="278.7414" x2="288.7305" y1="612.9323" y2="613.3978"/><line style="stroke:#181818;stroke-width:1.0;" x1="278.7414" x2="281.0915" y1="612.9323" y2="622.6522"/><line style="stroke:#181818;stroke-width:1.0;" x1="278.7414" x2="284.911" y1="612.9323" y2="618.025"/><ellipse cx="274.1141" cy="609.1128" fill="none" rx="4" ry="4" style="stroke:#181818;stroke-width:1.0;"/><text fill="#000000" font-family="sans-serif" font-size="13" lengthAdjust="spacing" textLength="63" x="191" y="549.0669">TokenKey</text></g><!--link DimWallet to FactTransaction--><g id="link_DimWallet_FactTransaction"><path codeLine="91" d="M628.878,465.538 C608.59,490.924 581.281,524.379 556,553 C541.159,569.802 537.4871,574.0882 521.6131,591.0872 " fill="none" id="DimWallet-to-FactTransaction" style="stroke:#181818;stroke-width:1.0;"/><line style="stroke:#181818;stroke-width:1.0;" x1="514.7881" x2="513.7133" y1="598.396" y2="608.338"/><line style="stroke:#181818;stroke-width:1.0;" x1="514.7881" x2="504.9427" y1="598.396" y2="600.148"/><line style="stroke:#181818;stroke-width:1.0;" x1="514.7881" x2="509.328" y1="598.396" y2="604.243"/><ellipse cx="518.8831" cy="594.0107" fill="none" rx="4" ry="4" style="stroke:#181818;stroke-width:1.0;"/><text fill="#000000" font-family="sans-serif" font-size="13" lengthAdjust="spacing" textLength="64" x="571" y="549.0669">WalletKey</text></g><!--SRC=[fLHjRzem4FwUN-7o2IGYaMphkgf2WWAbOdGP2QluLBdXDYmI6pdEDDJjlyzvmN7ULgfzYEAxvxdpStUsBxRmdL10io-hwVtTmzDYkkdwLXy9-Vcs_Dizv5l8D7yFfGzTIyEuo6ESrVrojDfaCP8gcJanuHa6K4744NKc9FH82970uQ63NWo4t9XpzWCBMC1HSWaLwER6MGo7XcbAU4t9BnMHuT8xdwlbSgcMhgkMe-MJKm0JV5JhHu1zoNZ08KZ7Jypz7URTJxqaAQDYLsoHM4sqhp7c0hWYRW2VZ3-bciS1y_TdrQjgrU5P0YEKPfdZQAVfkBnCXDpXw3C9YL1Af6CTmLRP7iSqmhuWZDwoc1R4COvW1k00bo6DsZss1tgMzj5soo6AD7NlxKITUmoVMQ2vhK7YhdJqG-gSW4z274HAu7HrQm-azKnowwDjvMPPvoCE0X3_8LHBDvEjIkjEM-vIV8XsxBpSQLZRy1hy7XCuSEF38KWW6eV0YTzzD-WFQego2jykAOjxWwOn3Z3rGTDZsVtqe3MV8oHV0Hm70WrgJIpuvtMlu3SUz3R5Cyx2rZ8zzW-eULhL-oDjH_O1fjwyF2NhggV3wrL3qqxesfsqe9WKMtt3GLpPvqJDeD8ULtrR8UNyAIB7KNbpJPEzw6_IDUheRqx7qEvyncsx34bathuiAi_uQjHfY2rHZSUy5dQwxg_7gU6tgTJFQ6sVUYigz78FwhAg_4BENm00]--></g></svg>